<?xml version="1.0" encoding="utf-8"?>
<!-- Generator: Adobe Illustrator 18.0.0, SVG Export Plug-In . SVG Version: 6.00 Build 0)  -->
<!DOCTYPE svg PUBLIC "-//W3C//DTD SVG 1.1//EN" "http://www.w3.org/Graphics/SVG/1.1/DTD/svg11.dtd">
<svg version="1.1" id="Layer_1" xmlns="http://www.w3.org/2000/svg" xmlns:xlink="http://www.w3.org/1999/xlink" x="0px" y="0px"
	 width="44px" height="44px" viewBox="0 0 44 44" enable-background="new 0 0 44 44" xml:space="preserve">
<g id="icon-pinterest">
	<path fill="#010101" d="M22.1,0.2C10,0.2,0.2,10,0.2,22.2c0,8.9,5.4,16.7,13.1,20.1c0-1.5,0-3.4,0.3-5.1c0.3-1.9,2.9-12,2.9-12
		s-0.7-1.3-0.7-3.5c0-3.2,1.9-5.7,4.2-5.7c2,0,3,1.5,3,3.4c0,2-1.3,5.1-1.9,7.8c-0.5,2.4,1.2,4.2,3.5,4.2c4.2,0,6.9-5.4,6.9-11.6
		c0-4.7-3.2-8.4-9.1-8.4c-6.6,0-10.8,4.9-10.8,10.5c0,1.9,0.5,3.2,1.5,4.2c0.3,0.5,0.5,0.7,0.3,1.2c-0.2,0.3-0.3,1.3-0.5,1.7
		c-0.2,0.5-0.7,0.7-1.2,0.5c-3-1.2-4.6-4.6-4.6-8.4c0-6.2,5.2-13.7,15.7-13.7c8.4,0,13.8,6.1,13.8,12.5c0,8.6-4.7,15-11.8,15
		c-2.4,0-4.6-1.3-5.4-2.7c0,0-1.3,5.1-1.5,6.1c-0.5,1.7-1.3,3.4-2.2,4.7c2,0.5,4,0.8,6.2,0.8c12.1,0,21.9-9.8,21.9-21.9
		C44,10,34.3,0.2,22.1,0.2z"/>
</g>
</svg>
