<?xml version="1.0" encoding="utf-8"?>
<!-- Generator: Adobe Illustrator 18.1.1, SVG Export Plug-In . SVG Version: 6.00 Build 0)  -->
<svg version="1.1" id="icon-notepad" xmlns="http://www.w3.org/2000/svg" xmlns:xlink="http://www.w3.org/1999/xlink" x="0px"
	 y="0px" width="36px" height="36px" viewBox="0 0 36 36" enable-background="new 0 0 36 36" xml:space="preserve">
<g id="notepad-shape">
	<path fill="#EA2128" d="M9.732,15.915h4.41v-4.411h-4.41V15.915z M10.711,12.484h2.45v2.45h-2.45V12.484z"/>
	<path fill="#EA2128" d="M9.732,22.514h4.41v-4.41h-4.41V22.514z M10.711,19.084h2.45v2.449h-2.45V19.084z"/>
	<rect x="16.348" y="12.484" fill="#EA2128" width="9.921" height="2.45"/>
	<rect x="16.348" y="19.084" fill="#EA2128" width="9.921" height="2.449"/>
	<path fill="#EA2128" d="M9.732,29.105h4.41v-4.412h-4.41V29.105z M10.711,25.674h2.45v2.451h-2.45V25.674z"/>
	<rect x="16.348" y="25.674" fill="#EA2128" width="9.921" height="2.451"/>
	<path fill="#EA2128" d="M29.542,2.704h-1.793V1.545C27.749,0.692,27.058,0,26.205,0c-0.853,0-1.545,0.692-1.545,1.545v1.158h-5.147
		V1.545C19.513,0.692,18.821,0,17.968,0c-0.853,0-1.545,0.692-1.545,1.545v1.158h-5.116V1.545C11.307,0.692,10.615,0,9.763,0
		C8.909,0,8.218,0.692,8.218,1.545v1.158H6.458c-1.769,0-3.203,1.434-3.203,3.203v26.892C3.256,34.566,4.689,36,6.458,36h23.084
		c1.769,0,3.202-1.434,3.202-3.202V5.906C32.744,4.138,31.311,2.704,29.542,2.704z M29.584,32.528H6.416V6.146h1.801v1.062
		c0,0.852,0.691,1.545,1.545,1.545c0.852,0,1.545-0.692,1.545-1.545V6.146h5.116v1.062c0,0.852,0.692,1.545,1.545,1.545
		c0.853,0,1.545-0.692,1.545-1.545V6.146h5.147v1.062c0,0.852,0.692,1.545,1.545,1.545c0.853,0,1.544-0.692,1.544-1.545V6.146h1.834
		V32.528z"/>
</g>
</svg>
