<?xml version="1.0" encoding="utf-8"?>
<!-- Generator: Adobe Illustrator 18.1.1, SVG Export Plug-In . SVG Version: 6.00 Build 0)  -->
<svg version="1.1" id="icon-world" xmlns="http://www.w3.org/2000/svg" xmlns:xlink="http://www.w3.org/1999/xlink" x="0px" y="0px"
	 width="36px" height="36px" viewBox="0 0 36 36" enable-background="new 0 0 36 36" xml:space="preserve">
<g id="world-shape">
	<path fill="#EA2128" d="M29.918,13.192c0,0.225,0.255,0.321,0.273,0.615c0.013,0.219-0.198,0.5,0.2,0.589
		c0.055,0.228,0.46,0.309,0.52,0.07c-0.256,0,0.005-0.378-0.142-0.378c0-0.122-0.084-0.122-0.095-0.259
		c0.032-0.024,0.207,0.009,0.283,0c-0.013-0.139-0.188-0.236-0.188-0.355c-0.066,0-0.226,0.18-0.216-0.015
		c0.011-0.217-0.042-0.123-0.139-0.268c-0.027,0-0.137-0.251-0.094-0.307c0.11,0,0.101,0.027,0.236-0.024
		c0.02,0,0.325-0.095,0.189-0.095c-0.159-0.16-0.045-0.362-0.37-0.266c-0.173,0.052-0.26,0.231-0.456,0.243
		C29.918,12.783,29.709,13.192,29.918,13.192z"/>
	<path fill="#EA2128" d="M28.902,13.57c0.015-0.426-0.355-0.354-0.472-0.591c-0.122,0-0.165-0.094-0.331-0.094
		c-0.107-0.036-0.192-0.011-0.254,0.076c-0.252,0.097-0.099-0.124-0.289-0.124c0.008-0.244-0.087-0.31-0.355-0.283
		c-0.154,0.347-0.39,0.555-0.354,0.945c0.113,0.027,0.093,0.052,0.071,0.166c0.152,0.008,1.063-0.047,1.063-0.142
		c0.031,0,0.19,0.326,0.19,0.047c0.127,0,0.194,0.299,0.496,0.212C28.666,13.843,29.172,13.57,28.902,13.57z"/>
	<path fill="#EA2128" d="M14.295,18.01c0,0.025,0,0.047,0,0.072c0.029-0.009,0.042-0.025,0.071-0.025
		C14.366,18.027,14.325,18.01,14.295,18.01z"/>
	<path fill="#EA2128" d="M18,0C8.059,0,0,8.059,0,18c0,9.941,8.059,18,18,18c9.941,0,18-8.059,18-18C36,8.059,27.941,0,18,0z
		 M22.072,11.593c-0.216,0.066-0.047-0.172-0.043-0.291c0.025,0,0.491,0.021,0.212-0.071c-0.014-0.254-0.072-0.331-0.307-0.331
		c0-0.174-0.06-0.161-0.089-0.351c-0.041-0.281,0.219,0.02,0.302-0.286c0.191,0,0.024,0.141-0.018,0.142
		c0.032,0.012-0.006,0.127-0.006,0.165c0.176-0.002,0.18-0.11,0.307-0.142c-0.027,0.159-0.203,0.19-0.031,0.325
		c0.091,0.072,0.186,0.157,0.149,0.266c0.226,0,0.258,0.218,0.212,0.473c0.125,0,0.119,0.006,0.119-0.119
		c0.122,0.034,0.112,0.142,0,0.142c-0.112,0.222-0.406,0.212-0.615,0.212C22.263,11.556,22.229,11.545,22.072,11.593z
		 M22.075,11.798c0,0.059-0.119,0.105-0.142,0.024c0.023,0.008,0.031,0,0.023-0.024C21.997,11.798,22.036,11.798,22.075,11.798z
		 M23.848,13.665c0.041,0.167,0.07,0.099,0.07-0.047c0.095,0,0.122,0.434-0.142,0.354C23.776,13.863,23.707,13.665,23.848,13.665z
		 M23.8,13.334c0.111,0.047,0.157,0.032,0.142-0.047c0.144,0.047-0.019,0.15-0.047,0.259C23.822,13.474,23.844,13.448,23.8,13.334z
		 M24.036,14.515c0-0.023,0-0.048,0-0.071c0.178,0.043,0.505,0.762,0.473,0.922c0.137,0,0.264-0.023,0.355,0
		c0,0.153,0.287,0.191,0.417,0.197c0.181,0.009,0.716-0.018,0.716-0.268c0.139,0,0.264,0.099,0.237,0.26
		c0.16,0.017,1.106,0.036,1.038,0.236c0.138,0,0.174,0.237,0.308,0.237c-0.027,0.163,0.165,0.59,0.307,0.59
		c0,0.142,0.088,0.403,0.213,0.496c0.067,0.203,0.288,0.631,0.496,0.756c-0.088,0.168,0.134,0.306,0.189,0.473
		c-0.012,0,0.048,0.248,0.118,0.284c0,0.168,0.352,0.851,0.544,0.851c0.012,0.083-0.181,0.121,0.07,0.139
		c0.034,0.002,0.26-0.004,0.26-0.045c0.205,0,0.484-0.029,0.685-0.094c0,0.305-0.256,0.477-0.213,0.78
		c-0.17,0-0.095,0.175-0.095,0.235c-0.11,0.069-0.127,0.194-0.259,0.26c0,0.137-0.307,0.364-0.397,0.482
		c-0.102,0.13-0.41,0.359-0.45,0.525c0.01-0.04-0.562,0.599-0.429,0.599c0,0.12-0.161,1.062,0.047,1.062
		c0,0.084,0.178,0.875,0.07,0.875c0,0.254-0.165,0.409-0.165,0.613c-0.08,0.055-0.196,0.085-0.236,0.166
		c-0.145,0-0.214,0.308-0.283,0.308c0,0.328-0.094,0.572-0.094,0.944c0.026,0-0.189,0.532-0.189,0.567
		c-0.173,0.117-0.614,0.538-0.614,0.756c0,0-0.307,0.433-0.354,0.496c-0.091,0-0.803,0.134-0.803,0.189
		c-0.153,0-0.543,0.121-0.638-0.023c0-0.151-0.082-0.34-0.095-0.544c-0.073,0-0.084-0.307-0.164-0.307
		c0-0.066-0.451-0.97-0.378-0.97c0-0.093-0.081-0.401-0.095-0.401c0-0.326-0.237-0.598-0.237-0.898c-0.07,0-0.213-0.661-0.141-0.661
		c0-0.346,0.121-0.574,0.171-0.959c0.055-0.422-0.027-0.68-0.101-0.979c-0.04,0-0.175-0.226-0.189-0.283
		c-0.19-0.126-0.26-0.376-0.26-0.614c0.124-0.141,0.174-0.674,0.142-0.851c-0.238-0.114-0.333-0.071-0.591-0.071
		c-0.152-0.306-1.175-0.118-1.465-0.118c0,0.167-0.712-0.032-0.779-0.166c-0.174,0-0.519-0.37-0.519-0.543
		c-0.19-0.127-0.495-0.759-0.495-0.969c-0.165-0.083-0.115-0.401-0.024-0.401c0.022-0.089-0.057-0.368-0.096-0.502
		c-0.029-0.099,0.096-0.207,0.096-0.325c0-0.329,0.008-0.481,0.191-0.833c0.057-0.111,0.132-0.214,0.186-0.352
		c0.099-0.247,0.128-0.012,0.261-0.233c0.126-0.063,0.201-0.274,0.331-0.378c0.057-0.076,0.059-0.107,0-0.166
		c0.026,0,0.165-0.364,0.165-0.447c0.184-0.258,0.053-0.14,0.236-0.119c0.067-0.073,0.178-0.26,0.283-0.26
		c0.046-0.091,0.162-0.141,0.259-0.141c0,0.141,0.385-0.047,0.426-0.047c0.066-0.133,0.49-0.283,0.59-0.283
		C23.067,14.329,23.903,14.536,24.036,14.515z M24.414,14.326c0.036-0.141,0.118-0.031,0.196-0.006
		c0.181,0.059,0.118-0.003,0.252-0.064C24.863,14.64,24.643,14.348,24.414,14.326z M30.012,24.176c0-0.085,0.015-0.075,0.071-0.118
		C30.108,24.181,30.131,24.215,30.012,24.176z M21.248,11.562c-0.127-0.127-0.005-0.194,0.024-0.33
		c-0.233-0.06,0.239-0.129,0.259-0.189c-0.079,0-0.133-0.082-0.103-0.151c0.035-0.081,0.094,0.097,0.175,0.056
		c0.095-0.01,0.283-0.153,0.187,0.124C21.692,11.352,21.602,11.556,21.248,11.562z M19.146,8.87c0,0,0.271-0.119,0.308-0.119
		c0,0.047-0.053,0.026,0.023,0.047c0.012,0.043-0.004,0.165,0,0.165c0,0.057,0.363-0.067,0.416-0.074
		c0.285-0.04,0.364-0.23,0.364,0.074c0.157,0.058,0.124-0.041,0.237-0.094c0,0.123,0.115,0.116-0.036,0.21
		C20.32,9.169,20.207,9.2,20.033,9.2c-0.054,0-0.462,0.073-0.462,0.023c-0.15,0-0.27-0.074-0.449-0.095
		C19.122,9.06,19.377,8.87,19.146,8.87z M29.328,24.838c0.095,0.071,0.167,0.204,0.236,0c-0.17-0.034-0.128-0.093-0.071-0.236
		c0.115,0.071,0.45,0.189,0.45-0.071c-0.273,0,0.047-0.452,0.047-0.165c0.241,0,0.087-0.3,0.189-0.402
		c0,0.122,0.063,0.47,0.142,0.497c0.186,0.17-0.142,0.228-0.142,0.354c-0.082,0.041-0.07,0.21-0.07,0.26c-0.039,0-0.079,0-0.118,0
		c-0.013,0.235-0.118,0.495-0.118,0.685c-0.108,0-0.076,0.381-0.088,0.633c-0.057,0.08-0.112,0.162-0.171,0.24
		C29.026,26.704,29.235,25.116,29.328,24.838z M32.42,16.789c-0.193,0.007-0.437-0.043-0.518-0.077c-0.474,0-0.874-0.45-1.346-0.308
		c0.007-0.023-0.001-0.031-0.024-0.023c0.039-0.116-0.354-0.805-0.522-0.502c-0.045,0.082,0.139,0.38,0.216,0.431
		c0,0.064,0.041,0.204,0.095,0.257c0.137,0.134-0.032,0.177-0.001,0.263c0.174,0,0.148-0.033,0.19-0.284
		c0.022,0.016,0.017,0.024,0.047,0.024c-0.023,0.095-0.008,0.182,0.043,0.261c0.175,0.268-0.04,0.016,0.028,0.212
		c0.242,0,0.472-0.131,0.591-0.426c0.09,0.067-0.019,0.168,0.07,0.212c0.079,0.092,0.155,0.136,0.105,0.245
		c-0.034,0.073,0.201,0.215,0.155-0.055c0.258,0.073,0.214,0.393,0.025,0.519c0,0.123-0.119,0.135-0.119,0.296
		c0,0.104-0.077,0.286-0.166,0.318c0,0.063-0.704,0.368-0.661,0.496c-0.124,0-0.558,0.125-0.638,0.284
		c-0.087,0-0.441,0.125-0.473,0.189c-0.439,0-0.355-0.519-0.567-0.519c0.016-0.087-0.043-0.125-0.094-0.213
		c0.134,0-0.425-1.042-0.425-1.205c-0.085-0.042-0.195-0.34-0.214-0.448c-0.116-0.077-0.235-0.329-0.284-0.473
		c-0.117-0.078-0.402-0.427-0.448-0.591c0.169,0.019,0.425,0.053,0.425-0.165c-0.115,0-0.131-0.141-0.024-0.141
		c-0.036-0.145,0.077-0.25,0.101-0.362c0.029-0.137,0.088-0.348,0.088-0.512c-0.163,0-0.202,0.028-0.331,0.071
		c0,0.096-0.288-0.024-0.331-0.024c-0.061-0.124-0.509,0.162-0.637-0.095c-0.203-0.184-0.149-0.326-0.214-0.587
		c-0.034-0.132-0.213-0.139-0.322-0.161c-0.308-0.06-0.086,0.367-0.102,0.465c0.189,0-0.119,0.235-0.119,0.354
		c-0.319-0.069-0.212-0.425-0.401-0.519c-0.056-0.094-0.01-0.165-0.142-0.165c0-0.127,0.069-0.356-0.071-0.402
		c0-0.061-0.267-0.086-0.307-0.165c-0.169,0-0.563-0.641-0.683-0.425c-0.077,0.138,0.064,0.172,0.092,0.284
		c0.244-0.049,0.22,0.404,0.52,0.354c0,0.064,0.008,0.127,0.023,0.19c0.221-0.052,0.196,0.165,0.307,0.165
		c-0.081,0.108-0.336-0.171-0.267,0.063c0.041,0.136,0.018,0.252-0.158,0.386c0-0.147-0.012-0.543-0.165-0.543
		c-0.105-0.209-0.414-0.159-0.544-0.354c-0.107,0-0.148-0.331-0.33-0.355c-0.034,0.048-0.163,0.095-0.212,0.095
		c-0.099,0.2-0.661,0.02-0.661,0.047c-0.009,0.003-0.315,0.752-0.331,0.85c-0.035,0.212-0.205,0.216-0.257,0.417
		c-0.026,0.101-0.641,0.053-0.641,0.127c-0.265-0.089-0.496-0.275-0.496-0.567c-0.022,0,0.05-0.742,0.095-0.851
		c0.054,0.015,0.065,0.034,0.095,0.095c0.163-0.061,0.543,0.04,0.543-0.142c0.159,0.004,0.206,0.067,0.142,0.19
		c0.148,0.028,0.402,0.065,0.402-0.142c-0.086,0-0.094-0.008-0.094-0.095c0.282-0.295-0.213-0.561-0.213-0.708
		c-0.099-0.033-0.304-0.251-0.159-0.169c0.122,0.068,0.572,0.209,0.395-0.091c0.012-0.004,0.02-0.012,0.024-0.023
		c0.049,0.036,0.26,0.254,0.26,0.047c0.058,0,0.283-0.142,0.095-0.142c0.017-0.106,0.013-0.195,0.024-0.261
		c0.298,0.162,0.131-0.11,0.284-0.212c0,0.196,0.161-0.095,0.259-0.095c0.116-0.175,0.383-0.039,0.448-0.237
		c-0.145-0.048-0.118-0.41-0.118-0.543c0.173,0.029,0.366-0.236,0.394-0.054c0.01,0.07,0.018,0.263,0.054,0.29
		c0.258,0.135,0.19-0.078,0.19-0.212c-0.086,0-0.201-0.304-0.214-0.449c-0.071,0.01-0.185,0.039-0.213,0.094
		c-0.258,0-0.433-0.094-0.637-0.094c-0.015-0.031-0.261-0.308-0.237-0.308c-0.143-0.248,0.145-0.176,0.19-0.188
		c0-0.235,0.974-0.194,1.016-0.568c-0.32,0,0.33-0.544,0.33-0.542c0.218-0.187,0.332-0.347,0.602-0.367
		c0.115-0.008,1.382-0.359,1.382-0.2c0.125,0.004,0.922,0.001,0.922,0.094c0.127,0,0.409,0.14,0.5,0.091
		c0.156-0.084,0.799,0.189,0.799,0.405c-0.302,0-0.718,0.071-1.111,0.071c0,0.087,0.043,0.009,0,0.094
		c0.137,0,0.379,0.353,0.355,0.473c0.193,0.003,0.268-0.142,0.401-0.142c0,0.163,0.189,0.19,0.236,0
		c-0.146,0-0.074-0.212-0.047-0.212c0.095-0.173,0.292-0.005,0.383-0.201C30.949,10.919,32.165,13.719,32.42,16.789z M8.147,7.409
		C8.216,7.401,8.38,7.294,8.413,7.286c0,0.147-0.035,0.156,0.024,0.331c0.027,0,0.167,0.231,0.164,0.33
		c0.129-0.009,0.314-0.092,0.355,0.072C8.893,8.018,8.83,8.01,8.768,7.994c0.045,0.366-0.159,0.142-0.33,0.142
		c0-0.024-0.518-0.232-0.308,0.118c0.055,0,0.026,0.086,0.183,0.139C8.495,8.454,8.695,8.49,8.886,8.519
		c0.155,0.025,0.245-0.028,0.378-0.028c0-0.02,0.324-0.165,0.095-0.165c0.032-0.13-0.026-0.162-0.166-0.165
		c0.012-0.138,0.339-0.048,0.472-0.048c0.102-0.172,0.004-0.152,0.093-0.309c0.108-0.192,0.237-0.026,0.308-0.21
		c0.107,0.041,0.202,0.099,0.236,0.235c0.085,0.071,0.52,0.714,0.52,0.26c0.156,0.052,0.233,0.344,0.236,0.497
		c0.282-0.041,0.307-0.254,0.307-0.473c0.066,0-0.024-0.106-0.024-0.142c0.105-0.039,0.236,0.1,0.236-0.047
		c0.046,0,0.048,0.045,0.048,0.095c0.147,0.029,0.24-0.017,0.331,0.014c0.062,0.023,0.03,0.344,0.002,0.458
		c-0.036,0.145-0.309,0.147-0.309,0.213c-0.311,0.233,0.366,0.354,0.473,0.496c-0.065,0-0.307-0.032-0.307-0.047
		c-0.153,0-0.525,0.163-0.661,0.047c0.191,0,0.255-0.23,0.283-0.448c-0.175-0.066-0.383,0.043-0.433,0.218
		c-0.082,0.289-0.274-0.011-0.37,0.184c-0.037,0.012-0.378,0.171-0.378,0.118c-0.383,0.055-0.283,0.381-0.283,0.733
		c0.153,0.092,0.463,0.353,0.448,0.496c0.345,0.061,0.47,0.097,0.78,0.142c0.026,0.051,0.127,0.097,0.189,0.117
		c0,0.202,0.184,0.166,0.354,0.166c0-0.26,0.301,0.216,0.331,0.307c-0.042,0,0.071,0.265,0.094,0.355
		c-0.047-0.017-0.062,0-0.047,0.047c0.149,0.054,0.386,0.039,0.425-0.119c-0.144,0-0.095-0.164-0.095-0.26
		c-0.148-0.099-0.125-0.289,0.024-0.33c0,0.134,0.486-0.084,0.212-0.189c0.067-0.151,0.112-0.383,0.003-0.513
		c-0.07-0.083-0.157,0-0.192-0.124c0.186-0.047,0.049-0.401,0.047-0.567c0.059-0.023,0.213,0.038,0.213,0
		c0.182,0,0.484,0.231,0.59-0.048c0.304,0.139,0.062,0.271,0.378,0.166c0,0.075,0.356,0.425,0.402,0.425
		c0,0.016-0.008,0.118,0.07,0.118c0,0.076-0.047-0.044-0.047,0.094c0.044,0.004,0.284,0.048,0.284-0.047
		c0.152,0,0.26-0.188,0.26-0.331c0.095-0.062,0.262,0.52,0.377,0.52c0.085,0.132,0.355,0.324,0.355,0.448
		c0.057,0.058,0.118,0.043,0.118,0.213c0.072,0,0.213-0.283,0.213-0.024c0.067,0,0.26,0.144,0.283,0.259
		c-0.169,0-0.008,0.166-0.095,0.166c0,0.163-0.365,0.033-0.448,0.023c-0.113,0.508-0.795,0.143-1.207,0.274
		c-0.217,0.07-0.637,0.55-0.66,0.789c0.264,0.003,0.379-0.229,0.614-0.308c0.192,0,0.229-0.117,0.402-0.165
		c0,0.048,0.047,0.023,0.047,0.071c-0.337,0-0.132,0.218-0.034,0.377c0.094,0.153,0.202,0.206,0.341,0.213
		c-0.035,0.107-0.212,0.022-0.212,0.142c-0.064,0.021-0.189,0.068-0.213,0.118c-0.381,0.043-0.193,0.017-0.168-0.075
		c0.014,0.033,0.151,0.003,0.145,0.004c-0.023-0.114-0.057-0.099-0.023-0.166c-0.207,0-0.307,0.095-0.473,0.095
		c-0.028,0.056-0.172,0.189-0.236,0.189c-0.048,0.147-0.157,0.412-0.284,0.496c0-0.038-0.336,0.212-0.307,0.212
		c-0.075,0.121-0.157,0.117-0.189,0.307c-0.023,0.012-0.118,0.329-0.118,0.378c-0.147,0.097-0.201,0.497-0.449,0.497
		c-0.152,0.304-0.425,0.263-0.425,0.662c0.093,0.095,0.128,0.513,0.156,0.649c0.035,0.167,0.091,0.34-0.132,0.344
		c-0.015-0.025-0.17-0.26-0.142-0.26c0-0.098-0.119-0.41-0.189-0.507c-0.093-0.131-0.266,0.021-0.402-0.036
		c-0.058-0.116-0.45-0.142-0.59-0.142c0.023,0.088,0.087,0.115,0.094,0.213c-0.116,0.048-0.183,0.101-0.302,0.083
		c-0.206-0.029-0.181-0.189-0.407-0.166c-0.362,0.037-0.614,0.337-0.614,0.697c-0.039,0-0.039,0.708,0,0.708
		c0,0.2,0.165,0.345,0.165,0.497c0.161,0,0.341,0.354,0.497,0.354c0.018,0.125-0.078,0.145,0.189,0.142
		c0-0.014,0.146-0.091,0.165-0.19c-0.185-0.045-0.001-0.284,0.118-0.33c0,0.168,0.236-0.056,0.236-0.071
		c0.027-0.011,0.261-0.094,0.26-0.094c0-0.191,0.178,0.019,0.047,0.094c-0.128,0-0.118,0.213-0.189,0.213
		c-0.03,0.152-0.09,0.284-0.126,0.431c-0.045,0.182,0.102,0.201,0.055,0.372c0.189,0.035,0.378,0.001,0.567,0
		c0.002-0.034-0.006-0.066-0.023-0.094c0.274,0,0.023,0.519,0.189,0.519c0,0.197,0.094,0.35,0.094,0.473
		c0.128,0.085,0.205,0.198,0.166,0.354c0.157,0.022,0.496,0.062,0.496-0.142c0.238,0,0.256,0.163,0.237,0.33
		c0.476,0,0.178-0.473,0.377-0.473c0.019-0.078,0.051-0.091,0.097-0.041c0.097,0.052,0.171-0.097,0.249-0.146
		c0.025-0.016,0.111-0.067,0.126-0.067c0.068,0.04,0.073,0.029,0.102,0.074c0.129-0.001,0.26-0.074,0.372-0.152
		c0.17,0.022,0.115,0.387,0.434,0.41c0.128,0.009,0.424,0.045,0.534-0.031c0.028-0.018,0.128,0.064,0.14,0.098
		c0.106,0,0.096,0.093,0.143,0.091c0.01,0.021,0.026,0.029,0.047,0.023c0.013,0.04,0.099,0.051,0.142,0.165
		c0,0.103,0.212,0.121,0.212,0.189c0.153,0.077-0.052,0.098,0.181,0.169c0.129,0.04,0.248,0.105,0.387,0.114
		c0.043-0.168,0.188,0.025,0.259,0.025c0.038,0.076,0.056,0.017,0.094,0.094c0.218,0.182,0.074,0.112,0.165,0.307
		c0.105,0.07,0.138,0.31,0.166,0.449c-0.084,0-0.024,0.324-0.024,0.354c-0.103,0,0.26,0.196,0.26-0.047
		c0.149,0.025,0.247,0.189,0.354,0.189c-0.062,0.142,0.165,0.249,0.165,0.024c0.224,0.023,0.164,0.359,0.142,0.472
		c0.186,0,0.207-0.129,0.398-0.123c0.111,0.002,0.222,0.082,0.264-0.042c0.265,0.089,0.376,0.177,0.553,0.335
		c0.305,0.27,0.353,0.965,0.037,1.2c0,0.044-0.344,0.426-0.353,0.426c0,0.047-0.011,0.52-0.025,0.52
		c0,0.093-0.072,0.614-0.141,0.614c0,0.267-0.174,0.316-0.236,0.567c-0.143,0.107-0.532,0.284-0.591,0.402
		c-0.112,0-0.195,0.094-0.308,0.094c-0.016,0.033-0.256,0.26-0.212,0.26c-0.018,0.168,0.012,0.562-0.079,0.672
		c-0.06,0.073-0.148,0.066-0.11,0.179c-0.133,0,0.007,0.094-0.201,0.094c-0.132,0-0.366,0.189-0.374,0.348
		c-0.009,0.196-0.061,0.336-0.229,0.456c0,0.067-0.307,0.086-0.307,0.259c0.029,0,0,0.322,0,0.355
		c-0.091-0.003-0.316,0.089-0.355,0.164c-0.309,0-0.271,0.032-0.472,0.165c0,0.042-0.028,0.189-0.071,0.189
		c0,0.24-0.169,0.022-0.307,0.142c0.054,0,0.123,0.236,0.095,0.236c0,0.208-0.129,0.226-0.259,0.378
		c-0.063,0.042-0.121,0.212-0.166,0.212c0,0.14-0.07,0.268-0.07,0.402c0.03,0,0.002,0.06,0.023,0.117
		c0.067-0.019,0.068-0.094,0.095-0.094c0-0.118,0.188,0.071,0.071,0.071c-0.098,0.147-0.202,0.15-0.261,0.354
		c-0.168,0-0.323,0.425-0.165,0.425c0,0.077,0.028,0.141,0.064,0.201c-0.385-0.108-0.764-0.229-1.135-0.367
		c-0.016-0.433-0.004-1.559,0.15-1.559c0-0.072,0.063-0.378,0.118-0.378c0-0.188,0.023-0.412,0-0.638
		c-0.07-0.141,0.092-0.322,0.142-0.543c0.272-0.136,0.079-1.512,0.284-1.512c0-0.687,0.153-1.087,0.046-1.725
		c0.052,0-0.31-0.385-0.307-0.378c-0.347,0-0.59-0.558-0.59-0.803c-0.034-0.108-0.119-0.269-0.119-0.402
		c0.08,0-0.496-0.844-0.496-0.826c-0.304-0.169,0.017-0.407,0.048-0.685c-0.264-0.088,0.003-0.803,0.118-0.803
		c0.012-0.09,0.059-0.153,0.142-0.189c0.059,0.235,0.333-0.118,0.118-0.118c0-0.156-0.017-0.489,0-0.567
		c0-0.241-0.212-0.711-0.378-0.213c-0.177-0.088-0.623-0.072-0.662-0.354c0.028-0.138-0.254-0.423-0.354-0.473
		c0.092-0.243-0.479-0.567-0.685-0.567c0-0.052-0.109-0.028-0.142-0.094c-0.21,0-0.259-0.284-0.496-0.284
		c-0.274,0-0.55-0.189-0.803-0.189c-0.085-0.169-0.476-0.103-0.567-0.284c-0.205,0-0.286-0.391-0.291-0.535
		c-0.008-0.174-0.149-0.787-0.394-0.787c0-0.149-0.338-0.402-0.425-0.402c0-0.027-0.137-0.331-0.189-0.331
		c0-0.102-0.358-0.562-0.416-0.361C6.779,15.7,7.09,15.875,7.09,16.027c0.058,0,0.302,0.463,0.351,0.545
		c0.532,0.902-0.398,0.286-0.398-0.096c-0.119-0.06-0.307-0.513-0.307-0.638c-0.07-0.056-0.276-0.495-0.259-0.495
		c0-0.289-0.158-0.426-0.473-0.426c-0.015-0.029-0.279-0.401-0.284-0.401c0-0.118-0.212-0.485-0.33-0.543
		c0-0.245-0.126-0.548-0.07-0.803c0-0.444-0.008-0.996-0.412-1.333C5.7,10.158,6.805,8.658,8.147,7.409z M15.288,12.578
		c0,0.124-0.058,0.157-0.189,0.165C15.127,12.628,15.168,12.648,15.288,12.578z M14.532,18.058c-0.072,0-0.165,0.068-0.119-0.071
		C14.468,17.987,14.532,18.008,14.532,18.058z M13.516,18.035c-0.039,0.075-0.358,0.062-0.402-0.025c0.118,0,0.209,0.048,0.33,0
		c0-0.065-0.054-0.117-0.094-0.188c0.128,0,0.273,0.098,0.449,0.094c0-0.109-0.048,0.024,0-0.119
		c0.074,0.019,0.251,0.188,0.259,0.26C13.8,18.029,13.789,18.035,13.516,18.035z M13.705,19.145
		c-0.019,0.067-0.016,0.071-0.094,0.071c0.008-0.032,0.015-0.063,0.023-0.094C13.658,19.128,13.681,19.136,13.705,19.145z
		 M12.476,17.468c-0.12,0-0.354-0.105-0.425-0.213c0.117,0.005,0.233,0.053,0.307-0.071c0.3,0.031,0.326,0.237,0.567,0.237
		c0.045,0.08,0.302,0.263,0.054,0.287C12.792,17.727,12.555,17.624,12.476,17.468z M12.83,18.105
		c-0.047,0.008-0.094,0.016-0.141,0.024C12.702,18.02,12.806,17.898,12.83,18.105z M12.666,18.129c-0.088,0-0.232,0.038-0.166-0.142
		C12.617,18.003,12.672,18.05,12.666,18.129z M11.815,17.232c0,0.136-0.317,0.176-0.236-0.048c0.024,0.008,0.048,0.017,0.071,0.024
		C11.68,17.325,11.744,17.266,11.815,17.232z"/>
</g>
</svg>
