<?xml version="1.0" encoding="utf-8"?>
<!-- Generator: Adobe Illustrator 18.1.1, SVG Export Plug-In . SVG Version: 6.00 Build 0)  -->
<!DOCTYPE svg PUBLIC "-//W3C//DTD SVG 1.1//EN" "http://www.w3.org/Graphics/SVG/1.1/DTD/svg11.dtd">
<svg version="1.1" id="icon-no-leak" xmlns="http://www.w3.org/2000/svg" xmlns:xlink="http://www.w3.org/1999/xlink" x="0px"
	 y="0px" width="95px" height="101px" viewBox="452.5 449.5 95 101" enable-background="new 452.5 449.5 95 101"
	 xml:space="preserve">
<rect x="452.4" y="449.5" fill="#ED1C24" width="95.2" height="101"/>
<g id="no_worries">
	<path fill="#FFFFFF" d="M463.4,536h1.7l2.3,4.4h0.1V536h1.5v7.1h-1.5l-2.5-4.6h-0.1v4.6h-1.5V536z"/>
	<path fill="#FFFFFF" d="M470,540.6v-0.2c0-1.6,0.9-2.6,2.4-2.6c1.5,0,2.4,1,2.4,2.6v0.2c0,1.6-0.9,2.6-2.4,2.6
		C470.9,543.2,470,542.2,470,540.6z M473.3,540.6v-0.2c0-1.2-0.3-1.7-0.9-1.7s-0.9,0.5-0.9,1.7v0.2c0,1.2,0.3,1.7,0.9,1.7
		C473,542.3,473.3,541.8,473.3,540.6z"/>
	<path fill="#FFFFFF" d="M477.8,536h1.7l1.1,5.4h0.1l1.2-5.4h1.7l1.3,5.4h0.1l1.1-5.4h1.6l-1.9,7.2h-1.8l-1.3-5.3h-0.1l-1.3,5.3
		h-1.8L477.8,536z"/>
	<path fill="#FFFFFF" d="M488,540.6v-0.2c0-1.6,0.9-2.6,2.4-2.6c1.5,0,2.4,1,2.4,2.6v0.2c0,1.6-0.9,2.6-2.4,2.6
		C488.9,543.2,488,542.2,488,540.6z M491.4,540.6v-0.2c0-1.2-0.3-1.7-0.9-1.7s-0.9,0.5-0.9,1.7v0.2c0,1.2,0.3,1.7,0.9,1.7
		C491.1,542.3,491.4,541.8,491.4,540.6z"/>
	<path fill="#FFFFFF" d="M493.8,537.9h1.6v1.2h0c0.7-1.1,1.2-1.3,1.9-1.3v1.3c-0.9,0-1.4,0.2-1.9,0.7v3.4h-1.6V537.9z"/>
	<path fill="#FFFFFF" d="M498,537.9h1.6v1.2h0c0.7-1.1,1.2-1.3,1.9-1.3v1.3c-0.9,0-1.4,0.2-1.9,0.7v3.4H498V537.9L498,537.9z"/>
	<path fill="#FFFFFF" d="M502.2,536h1.6v1.2h-1.6V536z M502.2,537.9h1.6v5.3h-1.6V537.9z"/>
	<path fill="#FFFFFF" d="M504.6,540.6v-0.2c0-1.6,0.9-2.6,2.3-2.6c1.4,0,2.3,1,2.3,2.6v0.4h-3.1c0.1,1,0.5,1.4,1.2,1.4
		c0.5,0,1-0.1,1.5-0.5l0.4,0.9c-0.7,0.4-1.3,0.6-2.2,0.6C505.6,543.2,504.6,542.3,504.6,540.6z M507.8,540.2c0-1.2-0.3-1.6-0.8-1.6
		c-0.5,0-0.8,0.5-0.8,1.6H507.8z"/>
	<path fill="#FFFFFF" d="M509.8,542.4l0.8-0.8c0.4,0.4,1,0.7,1.5,0.7c0.5,0,0.8-0.2,0.8-0.5c0-0.3-0.2-0.5-1.1-0.7
		c-1.3-0.3-1.8-0.9-1.8-1.7c0-1,0.9-1.6,2-1.6c0.9,0,1.5,0.3,2,0.7l-0.8,0.8c-0.4-0.4-0.8-0.6-1.3-0.6c-0.4,0-0.6,0.2-0.6,0.5
		c0,0.3,0.2,0.5,1,0.7c1.3,0.4,1.8,0.9,1.8,1.7c0,1.1-0.9,1.6-2.2,1.6C511,543.2,510.3,542.9,509.8,542.4z"/>
</g>
<g id="no_leak_promise">
	<path fill="#FFFFFF" d="M463.4,525h1.7l2.3,4.4h0.1V525h1.5v7.1h-1.5l-2.5-4.6h-0.1v4.6h-1.5V525z"/>
	<path fill="#FFFFFF" d="M470,529.6v-0.2c0-1.6,0.9-2.6,2.4-2.6c1.5,0,2.4,1,2.4,2.6v0.2c0,1.6-0.9,2.6-2.4,2.6
		C470.9,532.2,470,531.2,470,529.6z M473.3,529.6v-0.2c0-1.2-0.3-1.7-0.9-1.7s-0.9,0.5-0.9,1.7v0.2c0,1.2,0.3,1.7,0.9,1.7
		C473,531.3,473.3,530.8,473.3,529.6z"/>
	<path fill="#FFFFFF" d="M478,525h1.7v5.9h3.1v1.2H478L478,525L478,525z"/>
	<path fill="#FFFFFF" d="M483.3,529.6v-0.2c0-1.6,0.9-2.6,2.3-2.6c1.4,0,2.3,1,2.3,2.6v0.4h-3.1c0.1,1,0.5,1.4,1.2,1.4
		c0.5,0,1-0.1,1.5-0.5l0.4,0.9c-0.7,0.4-1.3,0.6-2.2,0.6C484.2,532.2,483.3,531.2,483.3,529.6z M486.4,529.2c0-1.2-0.3-1.6-0.8-1.6
		c-0.5,0-0.8,0.5-0.8,1.6H486.4z"/>
	<path fill="#FFFFFF" d="M488.5,530.8c0-1.1,1-1.7,3.1-1.8v-0.5c0-0.5-0.3-0.7-0.7-0.7c-0.4,0-0.9,0.1-1.6,0.5l-0.4-0.9
		c0.8-0.4,1.5-0.6,2.3-0.6c1.3,0,1.9,0.5,1.9,1.7v2.6c0,0.4,0.1,0.5,0.5,0.6v0.5c-1.1,0-1.8-0.2-1.9-0.7h-0.1
		c-0.5,0.5-1,0.7-1.6,0.7C489.2,532.2,488.5,531.7,488.5,530.8z M491.6,530.9v-1.3c-1.3,0.1-1.7,0.5-1.7,1c0,0.4,0.3,0.7,0.8,0.7
		C491,531.3,491.3,531.2,491.6,530.9z"/>
	<path fill="#FFFFFF" d="M494.3,524.9l1.6-0.2v4.8l1.7-2.6h1.7l-1.8,2.6l1.9,2.7h-1.7l-1.8-2.6v2.6h-1.6L494.3,524.9L494.3,524.9z"
		/>
	<path fill="#FFFFFF" d="M502.2,525h2.6c1.7,0,2.7,0.7,2.7,2.1c0,1.5-1,2.3-2.8,2.3h-0.9v2.7h-1.7V525L502.2,525z M504.6,528.2
		c0.8,0,1.2-0.4,1.2-1.1c0-0.7-0.4-1-1.2-1h-0.8v2.1H504.6z"/>
	<path fill="#FFFFFF" d="M508.3,526.8h1.6v1.2h0c0.7-1.1,1.2-1.3,1.9-1.3v1.3c-0.9,0-1.4,0.2-1.9,0.7v3.4h-1.6V526.8L508.3,526.8z"
		/>
	<path fill="#FFFFFF" d="M512.3,529.6v-0.2c0-1.6,0.9-2.6,2.4-2.6c1.5,0,2.4,1,2.4,2.6v0.2c0,1.6-0.9,2.6-2.4,2.6
		C513.2,532.2,512.3,531.2,512.3,529.6z M515.6,529.6v-0.2c0-1.2-0.3-1.7-0.9-1.7c-0.6,0-0.9,0.5-0.9,1.7v0.2c0,1.2,0.3,1.7,0.9,1.7
		S515.6,530.8,515.6,529.6z"/>
	<path fill="#FFFFFF" d="M518,526.8h1.6v0.9h0c0.6-0.6,1.1-0.9,1.8-0.9c0.7,0,1,0.3,1.1,0.8c0,0.1,0,0.2,0,0.2h0.1
		c0.5-0.6,1.1-0.9,1.8-0.9c0.8,0,1.2,0.5,1.2,1.3v4h-1.6v-3.6c0-0.4-0.2-0.6-0.6-0.6c-0.3,0-0.6,0.2-0.9,0.6v3.7h-1.6v-3.6
		c0-0.4-0.2-0.6-0.6-0.6c-0.3,0-0.6,0.2-0.9,0.6v3.7H518L518,526.8L518,526.8z"/>
	<path fill="#FFFFFF" d="M526.7,525h1.6v1.2h-1.6V525z M526.7,526.8h1.6v5.3h-1.6V526.8z"/>
	<path fill="#FFFFFF" d="M529,531.4l0.8-0.8c0.4,0.4,1,0.7,1.5,0.7c0.5,0,0.8-0.2,0.8-0.5c0-0.3-0.2-0.5-1.1-0.8
		c-1.3-0.3-1.8-0.9-1.8-1.7c0-1,0.9-1.6,2-1.6c0.9,0,1.5,0.3,2,0.7l-0.8,0.8c-0.4-0.4-0.8-0.6-1.3-0.6c-0.4,0-0.6,0.2-0.6,0.5
		c0,0.3,0.2,0.5,1,0.7c1.3,0.4,1.8,0.9,1.8,1.7c0,1.1-0.9,1.6-2.2,1.6C530.2,532.2,529.5,531.9,529,531.4z"/>
	<path fill="#FFFFFF" d="M534,529.6v-0.2c0-1.6,0.9-2.6,2.3-2.6c1.4,0,2.3,1,2.3,2.6v0.4h-3.1c0.1,1,0.5,1.4,1.2,1.4
		c0.5,0,1-0.1,1.5-0.5l0.4,0.9c-0.7,0.4-1.3,0.6-2.2,0.6C534.9,532.2,534,531.2,534,529.6z M537.1,529.2c0-1.2-0.3-1.6-0.8-1.6
		c-0.5,0-0.8,0.5-0.8,1.6H537.1z"/>
</g>
<g id="skylight">
	<path fill="#FFFFFF" d="M538.3,506.3v-2.1h-8.7v2.1h3v11.9h2.8v-12H538.3z M527.6,518.3v-14.1h-2.7v5.5l-2.8,0v-5.5h-2.7v14.1h2.7
		v-6.5h2.8v6.5H527.6z M517,518.3v-7.7h-4.2v2h1.5l0,2.8c0,0.7-0.4,1.2-1.3,1.2c-1.1,0-1.4-0.6-1.4-1.2v-8.2c0-0.9,0.7-1.1,1.3-1.1
		c0.6,0,1.3,0.2,1.3,1.1v1.9h2.7v-1.9c0-2-1.7-3.2-4-3.2c-2.4,0-4,1.3-4,3.4v8.3c0,1.5,0.7,3,3.5,3c1.7,0,2.1-0.7,2.3-1.1v0.8H517
		L517,518.3z M506.4,504.3h-2.7v14.1h2.7V504.3z M501.6,518.3v-2.1h-4.2v-12h-2.7v14.1H501.6z M492.8,504.3h-2.8l-1.7,5l-1.7-5h-2.9
		l3.3,8v6.1h2.7v-6.1L492.8,504.3z M482.2,518.3l-3.5-7.4l3-6.6h-2.9l-2.6,5.8v-5.8h-2.6v14.1h2.7l0-6.6l2.9,6.6L482.2,518.3
		L482.2,518.3z M471.3,515.6v-1.7c0-3.4-5.4-3.3-5.4-5.9v-0.8c0-0.4,0.3-1,1.2-1c1.2,0,1.3,0.8,1.3,1.1c0,0.1,0,1.6,0,1.6h2.7v-2
		c0-1.8-2.1-2.9-4-2.9c-2,0-3.8,1.2-3.8,2.9v1.7c0,3.2,5.2,3.7,5.3,5.7c0,0.9,0,1.2,0,1.2c0,0.6-0.3,1.2-1.3,1.2
		c-0.9,0-1.3-0.6-1.3-1.2v-1.7h-2.7v1.6c0,2.4,1.7,3.4,4,3.4C469,518.6,471.3,517.7,471.3,515.6"/>
</g>
<g id="leak">
	<polygon fill="#FFFFFF" points="493.7,499.2 493.7,480.4 497.1,480.4 497.1,496.4 502.5,496.4 502.5,499.2 	"/>
	<polygon fill="#FFFFFF" points="504.3,499.2 504.3,480.4 513.2,480.4 513.2,483.3 507.8,483.3 507.8,487.8 511.2,487.8 
		511.2,490.5 507.8,490.5 507.8,496.4 513.6,496.4 513.6,499.2 	"/>
	<path fill="#FFFFFF" d="M520.4,485.6l-1.2,7.5h2.4L520.4,485.6z M522.8,499.2l-0.7-3.3h-3.4l-0.7,3.3h-3.4l3.9-18.7h4l3.7,18.7
		H522.8z"/>
	<polygon fill="#FFFFFF" points="534.9,499.2 531.2,490.3 531.2,499.2 527.7,499.2 527.7,480.4 531.1,480.4 531.1,488.1 
		534.4,480.4 538,480.4 534.2,489.3 538.7,499.2 	"/>
</g>
<g id="no">
	<polygon fill="#FFFFFF" points="473.4,499.2 469.9,499.1 466.2,487.8 466.2,499.2 463.1,499.2 463.1,480.4 466.9,480.4 
		470.1,489.5 470.2,480.4 473.4,480.4 	"/>
	<path fill="#FFFFFF" d="M482.8,484.5c0-1.1-0.9-1.6-1.7-1.6c-0.8,0-1.7,0.5-1.7,1.5c0,3,0,7.8,0,10.8c0,1.1,0.9,1.6,1.7,1.6
		c0.8,0,1.7-0.5,1.7-1.5V484.5L482.8,484.5z M481,499.6c-2.2,0-5.3-1.1-5.3-4.3v-10.7c0-3.4,2.6-4.6,5.3-4.6c3.1,0,5.4,1.4,5.4,4.5
		v10.6C486.4,498.7,483.3,499.6,481,499.6"/>
</g>
<g id="the">
	<polygon fill="#FFFFFF" points="469.5,460.8 469.5,474.5 466.4,474.5 466.4,460.8 463.1,460.8 463.1,458.4 472.7,458.4 
		472.7,460.8 	"/>
	<polygon fill="#FFFFFF" points="480.6,474.7 480.6,467.1 477.4,467.1 477.4,474.7 474.4,474.7 474.4,458.4 477.5,458.4 
		477.5,464.8 480.6,464.8 480.6,458.4 483.6,458.4 483.6,474.7 	"/>
	<polygon fill="#FFFFFF" points="485.6,474.5 485.6,458.4 493.3,458.4 493.3,460.8 488.6,460.8 488.6,464.7 491.5,464.7 
		491.5,467.1 488.6,467.1 488.6,472.2 493.6,472.1 493.6,474.5 	"/>
</g>
</svg>
