<?xml version="1.0" encoding="utf-8"?>
<!-- Generator: Adobe Illustrator 18.1.0, SVG Export Plug-In . SVG Version: 6.00 Build 0)  -->
<!DOCTYPE svg PUBLIC "-//W3C//DTD SVG 1.1//EN" "http://www.w3.org/Graphics/SVG/1.1/DTD/svg11.dtd">
<svg version="1.1" id="icon-pinterest--reversed" xmlns="http://www.w3.org/2000/svg" xmlns:xlink="http://www.w3.org/1999/xlink"
	 x="0px" y="0px" width="15px" height="15px" viewBox="-24 25 15 15" enable-background="new -24 25 15 15" xml:space="preserve">
<path id="letter" fill="#FFFFFF" d="M-17,35.9c1.3,1,3.6,0.4,4.6-0.5c1.5-1.3,2.1-3.8,1.9-5.8c-0.2-2.2-2.3-4.2-4.8-4.5
	c-3.8-0.4-7.3,1.9-7.3,5.6c0,1.8,0.5,2.9,2.1,3.5c1-1-0.2-1.7-0.3-2.9c-0.3-3.1,3.4-6.1,6.6-4.2c2.3,1.4,1.9,7.2-0.9,7.7
	c-0.6,0.1-1.2-0.1-1.5-0.3c-1.3-1.2,1.1-3.4,0.3-5.2c-0.7-1.6-2.6-0.3-2.8,1c-0.1,0.7,0.2,1.4,0.2,2.1c0,1.5-1,3.6-1.2,5.2
	c-0.1,0.6-0.2,1.8,0,2.4l0,0h1c0.7-1.2,1.2-3,1.5-4.6C-17.3,35.4-17.2,35.8-17,35.9z"/>
</svg>
