<?xml version="1.0" encoding="utf-8"?>
<!-- Generator: Adobe Illustrator 18.1.0, SVG Export Plug-In . SVG Version: 6.00 Build 0)  -->
<!DOCTYPE svg PUBLIC "-//W3C//DTD SVG 1.1//EN" "http://www.w3.org/Graphics/SVG/1.1/DTD/svg11.dtd">
<svg version="1.1" id="icon-twitter--reversed" xmlns="http://www.w3.org/2000/svg" xmlns:xlink="http://www.w3.org/1999/xlink"
	 x="0px" y="0px" width="15px" height="15px" viewBox="-24 25 15 15" enable-background="new -24 25 15 15" xml:space="preserve">
<path id="bird" fill="#FFFFFF" d="M-10.5,29.5c0,0.1,0,0.2,0,0.3c0,4-3.1,8.8-8.8,8.8c-1.7,0-3.3-0.5-4.7-1.4c0.2,0,0.5,0,0.7,0
	c1.5,0,2.8-0.5,3.9-1.3c-1.4,0-2.5-1-2.9-2.2c0.2,0,0.3,0,0.5,0s0.5,0,0.8-0.1c-1.4-0.2-2.5-1.5-2.5-3l0,0c0.5,0.2,1,0.3,1.4,0.3
	c-0.8-0.3-1.4-1.3-1.4-2.5c0-0.5,0.1-1,0.5-1.5c1.5,1.8,3.9,3.1,6.4,3.2c0-0.2-0.1-0.5-0.1-0.7c0-1.7,1.4-3.1,3.1-3.1
	c1,0,1.7,0.3,2.2,1c0.7-0.1,1.4-0.3,2-0.7c-0.2,0.7-0.7,1.4-1.3,1.7c0.5-0.1,1.2-0.2,1.7-0.5C-9.5,28.7-10,29.2-10.5,29.5z"/>
</svg>
