<?xml version="1.0" encoding="utf-8"?>
<!-- Generator: Adobe Illustrator 18.1.1, SVG Export Plug-In . SVG Version: 6.00 Build 0)  -->
<svg version="1.1" id="icon-pinterest" xmlns="http://www.w3.org/2000/svg" xmlns:xlink="http://www.w3.org/1999/xlink" x="0px"
	 y="0px" width="24px" height="24px" viewBox="0 0 24 24" enable-background="new 0 0 24 24" xml:space="preserve">
<path fill-rule="evenodd" clip-rule="evenodd" fill="#5F6C71" d="M11.137,17.36c2.05,1.556,5.803,0.615,7.424-0.774
	c2.335-2.004,3.414-6.068,3.07-9.284c-0.385-3.599-3.727-6.775-7.678-7.221C7.874-0.605,2.349,3.144,2.308,9.107
	c-0.02,2.805,0.879,4.573,3.327,5.544c1.671-1.671-0.313-2.758-0.512-4.642c-0.528-5.002,5.378-9.822,10.621-6.705
	c3.653,2.171,3.033,11.483-1.408,12.379c-0.883,0.178-1.992-0.1-2.43-0.517c-2.109-1.993,1.747-5.489,0.511-8.381
	C11.345,4.28,8.271,6.286,7.937,8.461c-0.179,1.181,0.381,2.319,0.384,3.353c0.009,2.46-1.527,5.808-1.92,8.253
	c-0.15,0.951-0.287,2.902-0.062,3.901C6.326,23.978,6.314,23.989,6.301,24h1.605c1.123-1.919,1.892-4.808,2.464-7.286
	C10.724,16.451,10.854,17.143,11.137,17.36z"/>
</svg>
