<svg xmlns="http://www.w3.org/2000/svg" style="display:none"><symbol id="icon-atom" viewBox="0 0 36 36">
<g id="atom-shape">
	<path d="M33.588,9c-0.865-1.495-2.805-2.22-5.38-2.22c-1.21,0-2.56,0.159-4.005,0.474
		C22.793,2.851,20.538,0,17.997,0c-2.54,0-4.795,2.851-6.205,7.255c-1.44-0.315-2.79-0.474-4-0.474c-1.29,0-2.415,0.18-3.33,0.549
		C3.548,7.701,2.842,8.25,2.413,9c-1.271,2.2,0.069,5.58,3.174,9c-3.105,3.42-4.445,6.8-3.174,9c0.865,1.5,2.804,2.22,5.38,2.22
		c1.21,0,2.56-0.16,4-0.475C13.203,33.15,15.458,36,17.997,36c2.54,0,4.795-2.85,6.205-7.255c1.444,0.315,2.795,0.475,4,0.475
		c2.58,0,4.52-0.725,5.385-2.22c1.269-2.201-0.071-5.58-3.18-9C33.517,14.58,34.857,11.2,33.588,9z M7.793,27.22
		c-1.87,0-3.2-0.445-3.65-1.22c-0.58-1.01,0.07-2.991,1.7-5.175c0.35-0.465,0.736-0.93,1.15-1.395c1.035,0.99,2.21,1.965,3.5,2.905
		c0.169,1.585,0.424,3.09,0.765,4.481C10.017,27.08,8.847,27.22,7.793,27.22z M10.297,19.675c-0.68-0.55-1.32-1.109-1.915-1.675
		c0.595-0.565,1.235-1.125,1.915-1.675c-0.019,0.555-0.035,1.11-0.035,1.675C10.262,18.566,10.278,19.125,10.297,19.675z
		 M10.493,13.665c-1.29,0.94-2.465,1.92-3.5,2.905c-0.415-0.465-0.801-0.931-1.15-1.395c-1.63-2.185-2.28-4.165-1.7-5.175
		c0.45-0.775,1.78-1.22,3.65-1.22c1.054,0,2.224,0.14,3.465,0.405C10.917,10.576,10.663,12.08,10.493,13.665z M23.298,12.17
		c-0.465-0.294-0.941-0.585-1.43-0.87c-0.49-0.28-0.976-0.545-1.464-0.799c0.814-0.315,1.619-0.59,2.404-0.82
		C22.993,10.46,23.163,11.285,23.298,12.17z M17.997,2c1.355,0,3.065,2.094,4.265,5.755c-1.375,0.405-2.804,0.931-4.265,1.575
		c-1.455-0.65-2.89-1.17-4.259-1.575C14.937,4.095,16.642,2,17.997,2z M13.192,9.675c0.785,0.235,1.591,0.51,2.405,0.825
		c-0.49,0.255-0.979,0.52-1.464,0.799c-0.49,0.285-0.965,0.576-1.435,0.87C12.838,11.285,13.002,10.46,13.192,9.675z M12.698,23.83
		c0.47,0.295,0.945,0.585,1.435,0.87c0.485,0.28,0.974,0.545,1.464,0.8c-0.814,0.315-1.62,0.59-2.405,0.825
		C13.002,25.545,12.838,24.715,12.698,23.83z M17.997,34c-1.355,0-3.06-2.095-4.259-5.755c1.369-0.405,2.8-0.924,4.259-1.575
		c1.46,0.65,2.89,1.17,4.265,1.575C21.062,31.905,19.352,34,17.997,34z M22.808,26.325c-0.785-0.235-1.59-0.51-2.404-0.825
		c0.489-0.255,0.974-0.52,1.464-0.8c0.489-0.285,0.965-0.575,1.43-0.87C23.163,24.715,22.993,25.541,22.808,26.325z M23.602,21.235
		c-0.87,0.6-1.785,1.18-2.734,1.73c-0.95,0.549-1.91,1.05-2.87,1.499c-0.955-0.45-1.915-0.95-2.865-1.499
		c-0.955-0.55-1.87-1.13-2.735-1.73c-0.085-1.03-0.135-2.105-0.135-3.235c0-1.13,0.05-2.205,0.135-3.235
		c0.87-0.6,1.78-1.18,2.735-1.73c0.95-0.549,1.91-1.05,2.865-1.5c0.96,0.45,1.92,0.951,2.87,1.5c0.949,0.55,1.864,1.13,2.734,1.73
		c0.085,1.03,0.13,2.105,0.13,3.235C23.732,19.13,23.687,20.205,23.602,21.235z M28.207,8.78c1.871,0,3.201,0.445,3.645,1.22
		c0.585,1.01-0.065,2.99-1.7,5.175c-0.346,0.465-0.73,0.93-1.145,1.395c-1.035-0.985-2.21-1.965-3.5-2.905
		c-0.17-1.585-0.43-3.09-0.765-4.48C25.982,8.92,27.153,8.78,28.207,8.78z M25.698,16.325c0.68,0.55,1.319,1.11,1.915,1.675
		c-0.596,0.565-1.235,1.125-1.915,1.675c0.024-0.55,0.034-1.109,0.034-1.675C25.732,17.435,25.722,16.875,25.698,16.325z
		 M31.857,26.001c-0.449,0.775-1.779,1.22-3.654,1.22c-1.05,0-2.221-0.14-3.46-0.405c0.335-1.391,0.595-2.895,0.765-4.481
		c1.29-0.939,2.464-1.915,3.5-2.905c0.415,0.465,0.799,0.931,1.145,1.395C31.788,23.01,32.437,24.991,31.857,26.001z"/>
	<polygon points="7.794,6.781 7.794,6.781 7.794,6.781 	"/>
	<polygon points="28.205,6.781 28.205,6.781 28.205,6.781 	"/>
	<circle cx="17.999" cy="18" r="2.578"/>
</g>
</symbol><symbol id="icon-chart" viewBox="0 0 36 36">
<polygon points="33.011,15.808 35.286,25.17 25.914,22.904 28.289,20.53 19.249,11.489 15.408,15.33 2.223,2.142 
	4.735,-0.372 4.735,-0.37 15.408,10.304 19.249,6.463 30.802,18.017 "/>
<rect x="24.629" y="27.02" width="4.739" height="8.608"/>
<rect x="16.781" y="22.716" width="4.738" height="12.912"/>
<rect x="8.636" y="18.352" width="4.74" height="17.277"/>
<rect x="0.714" y="14.108" width="4.74" height="21.521"/>
</symbol><symbol id="icon-chevron--down--reversed" viewBox="-28.5 25 11 11">
<polygon id="chevron" points="-28.5,27.5 -23,30.7 -17.5,27.5 -17.5,30.3 -23,33.5 -28.5,30.3 "/>
</symbol><symbol id="icon-chevron--down" viewBox="-30.5 27 11 11">
<polygon id="chevron" points="-30.5,29.5 -25,32.7 -19.5,29.5 -19.5,32.3 -25,35.5 -30.5,32.3 "/>
</symbol><symbol id="icon-chevron--left--reversed" viewBox="-30.5 27 11 11">
<polygon id="chevron" points="-24.8,38 -28,32.5 -24.8,27 -22,27 -25.2,32.5 -22,38 "/>
</symbol><symbol id="icon-chevron--left" viewBox="-30.5 27 11 11">
<polygon id="chevron" points="-24.8,38 -28,32.5 -24.8,27 -22,27 -25.2,32.5 -22,38 "/>
</symbol><symbol id="icon-chevron--right--reversed" viewBox="0 0 6 11">
<polygon id="chevron" points="0,11 3.2,5.5 0,0 2.8,0 6,5.5 2.8,11 "/>
</symbol><symbol id="icon-chevron--right" viewBox="-30.5 27 11 11">
<polygon id="chevron" points="-28,38 -24.8,32.5 -28,27 -25.2,27 -22,32.5 -25.2,38 "/>
</symbol><symbol id="icon-compass" viewBox="0 0 98 98">
<path d="M49,97.5C26.7,97.5,8.5,79.3,8.5,57c0-22.3,18.2-40.5,40.5-40.5c22.3,0,40.5,18.2,40.5,40.5
	C89.5,79.3,71.3,97.5,49,97.5z M13.5,57c0,19.6,15.9,35.5,35.5,35.5c19.6,0,35.5-15.9,35.5-35.5c0-19.6-15.9-35.5-35.5-35.5
	C29.4,21.5,13.5,37.4,13.5,57z"/>
<path id="pointer" d="M59.5,11.5L49,9.5l-10.5,2L49,0.5L59.5,11.5z"/>
</symbol><symbol id="icon-facebook" viewBox="0 0 24 24">
<path d="M14.769,4.572h3.692V0h-3.692c-3.054,0-5.538,2.692-5.538,6v2.308H5.538v4.586h3.692V24h4.615V12.894h4.615
	V8.308h-4.615V5.957C13.846,5.164,14.334,4.572,14.769,4.572z"/>
</symbol><symbol id="icon-five-star" viewBox="-205 297 200 200">
<path id="Cool_Grey_10M" d="M-105.002,308.05c-49.157,0-89.009,39.857-89.009,89.022
	c0,49.153,39.852,89.004,89.009,89.004c49.155,0,89.008-39.851,89.008-89.004C-15.994,347.907-55.847,308.05-105.002,308.05z
	 M-8.759,400.035l3.755-3.028l-3.755-3.025l3.555-3.255l-3.935-2.783l3.346-3.469l-4.103-2.536l3.118-3.672l-4.251-2.263
	l2.884-3.865l-4.389-1.998l2.635-4.038l-4.502-1.715l2.373-4.192l-4.602-1.434l2.108-4.335l-4.681-1.139l1.83-4.458l-4.743-0.844
	l1.543-4.564l-4.784-0.545l1.254-4.654l-4.813-0.241l0.961-4.723l-4.816,0.062l0.664-4.775l-4.809,0.364l0.365-4.805l-4.771,0.663
	l0.059-4.821l-4.724,0.964l-0.241-4.814l-4.65,1.256l-0.545-4.788l-4.564,1.548l-0.844-4.745l-4.457,1.831l-1.141-4.683
	l-4.334,2.107l-1.43-4.602l-4.192,2.375l-1.719-4.502l-4.037,2.632l-1.995-4.385L-84,303.022l-2.267-4.252l-3.675,3.119
	l-2.529-4.101l-3.472,3.343l-2.783-3.934l-3.255,3.553l-3.021-3.75l-3.025,3.751l-3.256-3.553l-2.783,3.934l-3.472-3.343
	l-2.529,4.101l-3.673-3.119l-2.27,4.252l-3.861-2.881l-1.994,4.385l-4.038-2.632l-1.715,4.502l-4.196-2.375l-1.429,4.602
	l-4.334-2.107l-1.14,4.683l-4.458-1.831l-0.844,4.745l-4.564-1.548l-0.545,4.788l-4.651-1.256l-0.241,4.814l-4.723-0.964
	l0.062,4.821l-4.771-0.663l0.362,4.805l-4.805-0.364l0.664,4.775l-4.819-0.062l0.965,4.723l-4.816,0.241l1.261,4.654l-4.789,0.545
	l1.547,4.564l-4.747,0.844l1.833,4.458l-4.682,1.139l2.105,4.335l-4.603,1.434l2.374,4.192l-4.499,1.715l2.632,4.038l-4.385,1.998
	l2.88,3.865l-4.251,2.263l3.117,3.672l-4.099,2.536l3.341,3.469l-3.934,2.782l3.555,3.255l-3.751,3.025l3.751,3.028l-3.555,3.248
	l3.934,2.783l-3.341,3.469l4.099,2.532l-3.117,3.672l4.251,2.271l-2.88,3.865l4.385,1.994l-2.632,4.034l4.499,1.716l-2.374,4.196
	l4.603,1.433l-2.105,4.334l4.682,1.137l-1.833,4.457l4.747,0.845l-1.547,4.56l4.789,0.544l-1.261,4.651l4.816,0.242l-0.965,4.723
	l4.819-0.062l-0.664,4.775l4.805-0.361l-0.362,4.801l4.771-0.66l-0.062,4.819l4.723-0.964l0.241,4.812l4.651-1.257l0.545,4.788
	l4.564-1.547l0.844,4.745l4.458-1.83l1.14,4.685l4.334-2.109l1.429,4.602l4.196-2.374l1.715,4.503l4.038-2.636l1.994,4.389
	l3.861-2.88l2.271,4.251l3.672-3.118l2.529,4.099l3.472-3.341l2.783,3.934l3.256-3.555l3.025,3.75l3.021-3.751l3.255,3.555
	l2.783-3.934l3.472,3.341l2.529-4.099l3.675,3.118l2.267-4.251l3.864,2.88l1.995-4.389l4.037,2.636l1.719-4.503l4.192,2.374
	l1.43-4.602l4.334,2.109l1.141-4.685l4.457,1.83l0.844-4.745l4.564,1.547l0.545-4.788l4.65,1.257l0.241-4.812l4.724,0.964
	l-0.059-4.819l4.771,0.66l-0.365-4.801l4.809,0.361l-0.664-4.775l4.816,0.062l-0.961-4.723l4.813-0.242l-1.254-4.651l4.784-0.544
	l-1.543-4.56l4.743-0.845l-1.83-4.457l4.681-1.137l-2.108-4.334l4.602-1.433l-2.373-4.196l4.502-1.716l-2.635-4.034l4.389-1.994
	l-2.884-3.865l4.251-2.271l-3.118-3.672l4.103-2.532l-3.346-3.469l3.935-2.783L-8.759,400.035z M-105.002,490.735
	c-51.73,0-93.668-41.937-93.668-93.663c0-51.738,41.938-93.682,93.668-93.682c51.727,0,93.668,41.944,93.668,93.682
	C-11.334,448.799-53.275,490.735-105.002,490.735z"/>
<path id="Blue_2905M" d="M-44.312,336.309c-15.533-15.535-36.985-25.142-60.687-25.142
	c-23.705,0-45.156,9.607-60.691,25.142c-1.528,1.528-2.996,3.116-4.405,4.755h130.188
	C-41.315,339.424-42.784,337.837-44.312,336.309z M-122.744,330.75c0,3.589-2.433,5.21-5.859,5.21c-1.885,0-3.061-0.264-4.663-0.993
	l0.831-2.311c1.46,0.649,2.473,0.872,3.69,0.872c1.744,0,2.777-0.973,2.777-2.737v-0.101c0-1.521-0.73-2.311-2.048-2.311
	c-0.892,0-1.541,0.345-2.25,0.994h-2.23l0.649-8.211h8.312v2.514h-6.305l-0.324,3.649h0.142c0.851-0.77,1.622-1.196,3.122-1.196
	c2.494,0,4.156,1.5,4.156,4.359C-122.744,330.488-122.744,330.75-122.744,330.75z M-115.446,331.237h-5.514v-2.636h5.514
	L-115.446,331.237L-115.446,331.237z M-109.131,335.961c-2.737,0-4.44-0.912-5.697-2.737l2.027-1.845
	c0.933,1.44,2.23,2.19,3.751,2.19c1.5,0,2.331-0.588,2.331-1.642c0-0.994-0.588-1.5-3.102-2.19
	c-3.447-0.912-4.561-2.169-4.561-4.541c0-2.575,1.906-4.237,5.007-4.237c2.413,0,3.913,0.75,5.089,2.332l-2.027,1.845
	c-0.872-1.156-1.845-1.784-3.142-1.784c-1.338,0-1.987,0.649-1.987,1.48c0,0.932,0.547,1.48,3.021,2.149
	c3.589,0.973,4.642,2.311,4.642,4.602C-103.78,334.501-105.888,335.961-109.131,335.961z M-95.698,335.211
	c-1.054,0.507-2.007,0.75-3.163,0.75c-1.905,0-2.879-0.851-2.879-2.696v-6.184h-1.865v-2.048h1.865v-3.386l2.98-0.669v4.055h2.737
	v2.048h-2.737v5.494c0,0.669,0.385,1.034,0.973,1.034c0.548,0,1.155-0.182,2.088-0.649L-95.698,335.211L-95.698,335.211z
	 M-84.822,335.859c-2.19,0.061-3.406-0.406-3.73-1.399h-0.101c-1.014,1.095-1.967,1.419-3.183,1.419
	c-1.581,0-2.899-1.014-2.899-2.858c0-2.19,1.926-3.528,6.082-3.69v-0.933c0-0.973-0.507-1.48-1.44-1.48
	c-0.872,0-1.825,0.284-3.183,1.014l-0.811-1.804c1.5-0.791,2.839-1.277,4.521-1.277c2.615,0,3.73,1.014,3.73,3.487v5.231
	c0,0.791,0.223,1.074,1.014,1.176V335.859z M-76.845,327.507c-1.804,0-2.717,0.345-3.71,1.379v6.873h-3.061v-10.786h3.061v2.554
	h0.081c1.379-2.169,2.311-2.737,3.629-2.737L-76.845,327.507L-76.845,327.507z M-91.957,332.656c0,0.912,0.567,1.44,1.459,1.44
	c0.69,0,1.277-0.264,1.845-0.851v-2.676C-91.127,330.71-91.957,331.521-91.957,332.656z M-190.628,402.814
	c1.428,21.386,10.683,40.627,24.938,54.882c15.534,15.533,36.986,25.138,60.691,25.138c23.702,0,45.153-9.606,60.687-25.138
	c14.256-14.255,23.512-33.497,24.939-54.882H-190.628z"/>
<path id="White" d="M-52.869,383.869h2.596v8.607c0,2.568,1.354,3.753,4.007,3.753c1.609,0,2.935-0.339,4.402-1.044
	v-3.132c-1.298,0.649-2.145,0.903-2.906,0.903c-0.819,0-1.354-0.508-1.354-1.439v-7.647h3.809v-2.85h-3.809v-5.643l-4.148,0.931
	v4.712h-2.596L-52.869,383.869L-52.869,383.869z M-60.003,393.604c-1.439,0-2.991-0.649-4.091-1.919l-2.06,2.144
	c1.327,1.383,3.245,2.37,6.067,2.37c3.443,0,5.841-1.524,5.841-4.628c0-2.427-1.326-3.866-4.881-4.882
	c-2.23-0.649-2.822-1.185-2.822-2.032c0-0.761,0.592-1.411,1.749-1.411c1.269,0,2.229,0.48,3.386,1.665l2.059-2.173
	c-1.298-1.354-2.935-2.088-5.333-2.088c-3.189,0-5.503,1.693-5.503,4.515c0,2.314,1.298,3.838,4.741,4.826
	c2.455,0.734,2.991,1.213,2.991,2.145C-57.858,393.068-58.732,393.604-60.003,393.604z M-59.001,363.749
	c0,2.568,1.354,3.753,4.007,3.753c1.608,0,2.935-0.339,4.402-1.044v-3.132c-1.298,0.649-2.145,0.903-2.907,0.903
	c-0.818,0-1.354-0.508-1.354-1.439v-7.647h3.81v-2.85h-3.81v-5.643L-59,347.581v4.712h-2.596v2.85H-59L-59.001,363.749
	L-59.001,363.749z M-71.925,356.61c0.847-1.045,1.722-1.609,2.512-1.609c1.072,0,1.551,0.621,1.551,1.835v10.384h4.233v-11.372
	c0-2.511-1.129-3.838-3.217-3.838c-1.89,0-3.33,0.847-4.966,2.625h-0.113v-8.776l-4.26,0.677v20.684h4.26L-71.925,356.61
	L-71.925,356.61z M-68.309,375.685h-4.233v3.555h4.233V375.685z M-80.093,395.947h4.233v-21.362l-4.233,0.678V395.947z
	 M-126.742,451.462l-3.383-10.457l-3.383,10.457l-10.983-0.013l8.896,6.443l-3.411,10.443l8.583-6.249l0.298-0.218l8.881,6.467
	l-3.408-10.443l8.894-6.443L-126.742,451.462z M-87.963,367.446c1.862,0,2.991-0.593,4.148-2.398h0.141v1.637
	c0,2.54-1.213,3.443-3.245,3.443c-1.806,0-4.148-0.988-4.148-0.988v2.709c1.101,0.424,2.54,0.762,4.571,0.762
	c4.656,0,7.083-1.722,7.083-6.406v-13.997h-4.261v2.06h-0.141c-1.072-1.749-2.201-2.286-4.12-2.286
	c-2.709,0-4.628,2.624-4.628,7.421v0.621C-92.562,364.849-90.812,367.446-87.963,367.446z M-86.1,354.719
	c1.467,0,2.455,1.75,2.455,4.966c0,3.274-1.016,5.023-2.455,5.023c-1.269,0-2.285-1.326-2.285-5.023
	C-88.385,356.103-87.398,354.719-86.1,354.719z M-72.542,395.947h4.233v-15.012h-4.233V395.947z M-142.945,383.107h-0.113v-2.173
	h-4.262v20.318h4.262v-7.365h0.113c0.847,1.411,2.088,2.286,4.035,2.286c2.709,0,4.741-2.624,4.741-7.421v-0.649
	c0-4.797-1.777-7.393-4.628-7.393C-140.631,380.709-141.816,381.499-142.945,383.107z M-140.66,383.447
	c1.298,0,2.314,1.326,2.314,5.023c0,3.584-0.987,4.966-2.314,4.966c-1.439,0-2.427-1.749-2.427-4.966
	C-143.087,385.196-142.099,383.447-140.66,383.447z M-89.874,420.567l-10.989,0.014l-3.38-10.457l-3.383,10.458l-10.984-0.015
	l8.893,6.444l-3.408,10.442l8.584-6.25l0.298-0.218l8.881,6.47l-3.409-10.443L-89.874,420.567z M-134.328,359.685l4.769,7.535h4.6
	l-5.136-7.647l4.853-7.365h-4.487l-4.599,7.393v-13.743l-4.261,0.677v20.684h4.261V359.685z M-119.625,388.158
	c0-4.684-2.286-7.506-6.152-7.506c-3.753,0-6.236,2.878-6.236,7.478v0.564c0,4.769,2.483,7.478,6.631,7.478
	c2.371,0,3.894-0.508,5.87-1.637l-1.044-2.596c-1.552,0.931-2.85,1.354-4.176,1.354c-1.919,0-3.189-1.016-3.33-3.866h8.437
	L-119.625,388.158L-119.625,388.158z M-128.062,387.623c0.056-3.217,0.818-4.515,2.286-4.515c1.439,0,2.088,1.156,2.201,4.515
	H-128.062z M-76.038,451.462l-3.381-10.457l-3.383,10.457l-10.986-0.013l8.896,6.443l-3.408,10.444l8.583-6.25l0.298-0.218
	l8.88,6.467l-3.407-10.443l8.895-6.443L-76.038,451.462z M-50.158,420.58l-3.378-10.455l-3.382,10.457l-10.986-0.014l8.896,6.443
	l-3.412,10.441l8.586-6.25l0.298-0.218l8.881,6.47l-3.411-10.443l8.898-6.445L-50.158,420.58z M-148.455,364.172
	c-2.117,0-3.923-1.044-5.221-3.047l-2.822,2.568c1.749,2.54,4.12,3.809,7.93,3.809c4.515,0,7.45-2.032,7.45-6.095
	c0-3.189-1.467-5.051-6.463-6.406c-3.443-0.931-4.204-1.693-4.204-2.991c0-1.157,0.903-2.06,2.765-2.06
	c1.806,0,3.16,0.875,4.373,2.483l2.822-2.568c-1.637-2.201-3.725-3.245-7.082-3.245c-4.318,0-6.97,2.314-6.97,5.897
	c0,3.302,1.552,5.051,6.35,6.321c3.499,0.959,4.317,1.665,4.317,3.048C-145.21,363.353-146.367,364.172-148.455,364.172z
	 M-157.185,392.9c-2.117,0-3.923-1.044-5.221-3.047l-2.822,2.568c1.749,2.54,4.12,3.809,7.93,3.809c4.515,0,7.45-2.032,7.45-6.095
	c0-3.189-1.467-5.051-6.463-6.405c-3.443-0.932-4.204-1.693-4.204-2.992c0-1.157,0.903-2.06,2.766-2.06
	c1.806,0,3.16,0.875,4.373,2.483l2.822-2.568c-1.637-2.201-3.725-3.245-7.082-3.245c-4.318,0-6.97,2.314-6.97,5.897
	c0,3.301,1.552,5.051,6.35,6.321c3.499,0.959,4.317,1.665,4.317,3.047C-153.94,392.081-155.097,392.9-157.185,392.9z
	 M-139.962,420.567l-10.987,0.014l-3.379-10.459l-3.382,10.459l-10.987-0.014l8.896,6.444l-3.409,10.44l8.583-6.25l0.299-0.217
	l8.877,6.469l-3.408-10.442L-139.962,420.567z M-118.52,368.857c-0.339,0.932-1.1,1.214-2.059,1.214s-2.681-0.79-2.681-0.79v2.709
	c0.988,0.479,2.004,0.649,3.358,0.649c2.85,0,4.317-0.931,5.305-4.035l5.249-16.395h-4.007l-2.991,11.231l-2.964-11.232h-4.373
	l5.361,16.113L-118.52,368.857z M-98.455,375.685h-4.233v3.555h4.233V375.685z M-95.375,346.96h-4.233v3.555h4.233V346.96z
	 M-89.617,383.644c1.298,0,2.003,0.706,2.003,2.06v1.298c-5.784,0.226-8.465,2.088-8.465,5.136c0,2.568,1.835,3.979,4.036,3.979
	c1.693,0,3.019-0.451,4.43-1.975h0.142c0.451,1.383,2.144,2.032,5.192,1.947v-1.552c-1.101-0.141-1.411-0.536-1.411-1.637v-7.281
	c0-3.443-1.552-4.853-5.192-4.853c-2.343,0-4.205,0.677-6.293,1.778l1.129,2.511C-92.157,384.038-90.831,383.644-89.617,383.644z
	 M-87.614,392.447c-0.79,0.818-1.608,1.185-2.567,1.185c-1.242,0-2.032-0.734-2.032-2.003c0-1.58,1.156-2.709,4.599-2.907V392.447z
	 M-95.375,352.207h-4.233v15.012h4.233V352.207z M-98.455,380.934h-4.233v15.012h4.233V380.934z M-110.995,383.417
	c1.242,0,1.75,0.875,2.089,2.794l3.782-0.762c-0.621-3.188-2.54-4.797-5.815-4.797c-4.063,0-6.575,2.878-6.575,7.478v0.621
	c0,4.628,2.483,7.478,6.434,7.478c3.218,0,5.25-1.496,6.012-4.684l-3.698-0.762c-0.452,1.975-1.101,2.681-2.173,2.681
	c-1.552,0-2.342-1.496-2.342-4.882V388.3C-113.281,384.884-112.519,383.417-110.995,383.417z M-102.926,345.858l-4.234,0.677v20.684
	h4.234V345.858z M-105,303.327c-51.73,0-93.668,41.944-93.668,93.682c0,51.726,41.938,93.663,93.668,93.663
	c51.727,0,93.668-41.937,93.668-93.663C-11.332,345.271-53.273,303.327-105,303.327z M-105,486.012
	c-49.157,0-89.009-39.851-89.009-89.004c0-49.164,39.852-89.022,89.009-89.022c49.155,0,89.008,39.857,89.008,89.022
	C-15.992,446.161-55.845,486.012-105,486.012z"/>
</symbol><symbol id="icon-list" viewBox="-25 25 16 16">
<g>
	<rect x="-20.7" y="26.3" width="11.7" height="2.5"/>
	<rect x="-20.7" y="31.7" width="11.7" height="2.5"/>
	<rect x="-20.7" y="37.2" width="11.7" height="2.5"/>
	<circle cx="-23.7" cy="27.5" r="1.3"/>
	<circle cx="-23.7" cy="33" r="1.3"/>
	<circle cx="-23.7" cy="38.5" r="1.3"/>
</g>
</symbol><symbol id="icon-map" viewBox="-25 25 16 16">
<g>
	<polygon points="-20.4,25.2 -25,26.8 -25,41 -20.4,39.5 -20.4,39.2 	"/>
	<polygon points="-9,25 -13.6,26.5 -13.6,26.8 -13.6,40.8 -9,39.2 	"/>
	<polygon points="-19.6,39.4 -14.4,40.8 -14.4,26.6 -19.6,25.2 	"/>
</g>
</symbol><symbol id="icon-mountains" viewBox="0 0 36 36">
<g id="mountains-shape">
	<path d="M21.996,6.818l-6.957,10.639l0.542,1.087h-1.254l-0.079,0.121l1.335,2.093l1.747,2.739h-2.087l1.626,2.095
		l2.051,2.641H36L21.996,6.818z M21.996,16.04l-2.677,1.23l-1.158-1.576l3.835-5.865l3.096,4.734l-2.051,5.673L21.996,16.04z"/>
	<polygon points="10.225,26.687 15.463,26.687 11.604,21.717 14.082,21.717 10.923,16.764 12.702,16.764 
		7.739,6.818 2.761,16.764 4.548,16.764 1.381,21.717 3.867,21.717 0,26.687 5.228,26.687 5.228,29.182 10.225,29.182 	"/>
</g>
</symbol><symbol id="icon-notepad" viewBox="0 0 36 36">
<g id="notepad-shape">
	<path d="M9.732,15.915h4.41v-4.411h-4.41V15.915z M10.711,12.484h2.45v2.45h-2.45V12.484z"/>
	<path d="M9.732,22.514h4.41v-4.41h-4.41V22.514z M10.711,19.084h2.45v2.449h-2.45V19.084z"/>
	<rect x="16.348" y="12.484" width="9.921" height="2.45"/>
	<rect x="16.348" y="19.084" width="9.921" height="2.449"/>
	<path d="M9.732,29.105h4.41v-4.412h-4.41V29.105z M10.711,25.674h2.45v2.451h-2.45V25.674z"/>
	<rect x="16.348" y="25.674" width="9.921" height="2.451"/>
	<path d="M29.542,2.704h-1.793V1.545C27.749,0.692,27.058,0,26.205,0c-0.853,0-1.545,0.692-1.545,1.545v1.158h-5.147
		V1.545C19.513,0.692,18.821,0,17.968,0c-0.853,0-1.545,0.692-1.545,1.545v1.158h-5.116V1.545C11.307,0.692,10.615,0,9.763,0
		C8.909,0,8.218,0.692,8.218,1.545v1.158H6.458c-1.769,0-3.203,1.434-3.203,3.203v26.892C3.256,34.566,4.689,36,6.458,36h23.084
		c1.769,0,3.202-1.434,3.202-3.202V5.906C32.744,4.138,31.311,2.704,29.542,2.704z M29.584,32.528H6.416V6.146h1.801v1.062
		c0,0.852,0.691,1.545,1.545,1.545c0.852,0,1.545-0.692,1.545-1.545V6.146h5.116v1.062c0,0.852,0.692,1.545,1.545,1.545
		c0.853,0,1.545-0.692,1.545-1.545V6.146h5.147v1.062c0,0.852,0.692,1.545,1.545,1.545c0.853,0,1.544-0.692,1.544-1.545V6.146h1.834
		V32.528z"/>
</g>
</symbol><symbol id="icon-people" viewBox="0 0 36 36">
<g id="people-shape">
	<path d="M36,25.194c0,0-0.009-0.88-1.811-1.681c-0.873-0.388-2.169-1.388-4.088-1.731
		c0.49-0.525,0.862-1.347,1.244-2.32c0.221-0.564,0.184-1.044,0.184-1.728c0-0.506,0.095-1.318-0.03-1.764
		c-0.423-1.506-1.493-1.922-2.746-1.922c-1.253,0-2.324,0.418-2.747,1.927c-0.124,0.445-0.029,1.254-0.029,1.758
		c0,0.685-0.038,1.168,0.185,1.733c0.315,0.8,0.618,1.492,0.985,2.005c2.126,1.281,2.324,2.701,2.329,3.151v0.007v0.007v2.044v0.002
		L36,26.681V25.194z"/>
	<path d="M6.507,24.629V24.62c0.005-0.446,0.202-1.846,2.283-3.12c0.381-0.517,0.695-1.223,1.014-2.038
		c0.221-0.564,0.184-1.044,0.184-1.728c0-0.506,0.095-1.318-0.03-1.764c-0.423-1.506-1.493-1.922-2.746-1.922
		c-1.254,0-2.324,0.418-2.747,1.927c-0.124,0.445-0.029,1.254-0.029,1.758c0,0.685-0.037,1.168,0.185,1.733
		c0.385,0.978,0.751,1.798,1.24,2.321c-1.904,0.35-3.19,1.343-4.058,1.73C0.008,24.317,0,25.194,0,25.194v1.489l6.507-0.001v-2.046
		V24.629z"/>
	<path d="M25.44,22.327c-1.2-0.533-2.981-1.908-5.618-2.38c0.674-0.722,1.185-1.85,1.71-3.188
		c0.304-0.776,0.252-1.436,0.252-2.377c0-0.696,0.13-1.81-0.042-2.423c-0.582-2.071-2.051-2.642-3.774-2.642
		c-1.723,0-3.195,0.574-3.775,2.648c-0.172,0.611-0.04,1.724-0.04,2.417c0,0.943-0.051,1.606,0.254,2.382
		c0.529,1.344,1.032,2.471,1.704,3.19c-2.616,0.481-4.384,1.845-5.576,2.377c-2.467,1.101-2.48,2.305-2.48,2.305v2.047l19.874-0.003
		v-2.044C27.929,24.636,27.917,23.428,25.44,22.327z"/>
</g>
</symbol><symbol id="icon-phone" viewBox="0 0 20 20">
<path id="phone-shape" d="M19.8,16.046l-4.395-2.59c-0.228-0.115-0.562-0.062-0.746,0.119l-1.293,1.293
	c-0.181,0.181-0.539,0.332-0.793,0.335c0,0-1.654,0.018-4.726-3.054c-3.072-3.072-3.057-4.73-3.057-4.73
	c0.003-0.258,0.154-0.616,0.334-0.796l1.101-1.101c0.184-0.184,0.243-0.521,0.136-0.755L3.937,0.209
	C3.83-0.024,3.594-0.066,3.413,0.115L0.406,3.113c-0.18,0.181-0.358,0.536-0.391,0.79c0,0-0.589,4.383,5.552,10.524
	c6.141,6.141,10.524,5.555,10.524,5.555c0.255-0.035,0.61-0.21,0.79-0.391l3.004-3.004C20.067,16.407,20.028,16.162,19.8,16.046"/>
</symbol><symbol id="icon-pin--primary" viewBox="0 0 55 55">
<path id="pin" fill-rule="evenodd" clip-rule="evenodd" d="M27.5,0C16.1,0,6.9,9.2,6.9,20.6S24.2,55,27.5,55
	c3.2,0,20.6-23,20.6-34.4S38.9,0,27.5,0z M27.5,34.4c-7.6,0-13.7-6.2-13.7-13.7S19.9,6.9,27.5,6.9c7.6,0,13.7,6.2,13.7,13.7
	S35.1,34.4,27.5,34.4z"/>
</symbol><symbol id="icon-pin--reversed" viewBox="0 0 16 16">
<path id="pin" fill-rule="evenodd" clip-rule="evenodd" d="M8,0C4.7,0,2,2.7,2,6s5,10,6,10c0.9,0,6-6.7,6-10
	S11.3,0,8,0z M8,10c-2.2,0-4-1.8-4-4s1.8-4,4-4c2.2,0,4,1.8,4,4S10.2,10,8,10z"/>
</symbol><symbol id="icon-pinterest" viewBox="0 0 24 24">
<path fill-rule="evenodd" clip-rule="evenodd" d="M11.137,17.36c2.05,1.556,5.803,0.615,7.424-0.774
	c2.335-2.004,3.414-6.068,3.07-9.284c-0.385-3.599-3.727-6.775-7.678-7.221C7.874-0.605,2.349,3.144,2.308,9.107
	c-0.02,2.805,0.879,4.573,3.327,5.544c1.671-1.671-0.313-2.758-0.512-4.642c-0.528-5.002,5.378-9.822,10.621-6.705
	c3.653,2.171,3.033,11.483-1.408,12.379c-0.883,0.178-1.992-0.1-2.43-0.517c-2.109-1.993,1.747-5.489,0.511-8.381
	C11.345,4.28,8.271,6.286,7.937,8.461c-0.179,1.181,0.381,2.319,0.384,3.353c0.009,2.46-1.527,5.808-1.92,8.253
	c-0.15,0.951-0.287,2.902-0.062,3.901C6.326,23.978,6.314,23.989,6.301,24h1.605c1.123-1.919,1.892-4.808,2.464-7.286
	C10.724,16.451,10.854,17.143,11.137,17.36z"/>
</symbol><symbol id="icon-search--reversed" viewBox="0 0 21 21">
<path id="glass" d="M20.4,17.9l-5.6-5.6C15.6,11,16,9.6,16,8c0-4.4-3.6-8-8-8C3.6,0,0,3.6,0,8c0,4.4,3.6,8,8,8
	c1.6,0,3-0.5,4.3-1.2l5.6,5.6c0.4,0.4,0.9,0.6,1.4,0.6c0,0,0,0,0,0c0.4,0,0.9-0.2,1.2-0.5c0.3-0.3,0.5-0.8,0.5-1.2
	C21,18.8,20.8,18.3,20.4,17.9z M12.5,8c0,2.5-2,4.5-4.5,4.5c-2.5,0-4.5-2-4.5-4.5c0-2.5,2-4.5,4.5-4.5C10.5,3.6,12.5,5.6,12.5,8z"/>
</symbol><symbol id="icon-tie-fighter" viewBox="0 0 24 24">
<polyline points="12,0 5.072,3.999 5.072,12.001 12,8 12,0 "/>
<polyline points="5.072,12 5.072,20 12,15.999 5.072,12 5.072,12 "/>
<polyline points="12,15.999 12,24 18.928,20 18.928,12 12,15.999 "/>
<polyline points="12,8.001 18.928,12 18.928,3.999 12,8.001 "/>
<polyline points="12,15.999 18.928,12 12,8.001 12,15.999 "/>
</symbol><symbol id="icon-twitter" viewBox="0 0 24 24">
<path d="M24,4.558c-0.882,0.391-1.833,0.656-2.827,0.775c1.017-0.61,1.797-1.574,2.165-2.724
	c-0.951,0.564-2.006,0.974-3.128,1.194c-0.897-0.956-2.176-1.554-3.593-1.554c-2.718,0-4.923,2.205-4.923,4.923
	c0,0.387,0.042,0.762,0.127,1.122C7.728,8.087,4.1,6.128,1.671,3.148C1.248,3.877,1.004,4.723,1.004,5.625
	c0,1.707,0.87,3.215,2.19,4.098C2.388,9.698,1.628,9.476,0.964,9.108c0,0.02,0,0.042,0,0.061c0,2.387,1.698,4.376,3.95,4.828
	c-0.413,0.115-0.848,0.173-1.297,0.173c-0.317,0-0.626-0.029-0.927-0.088c0.626,1.956,2.444,3.381,4.6,3.419
	c-1.686,1.321-3.809,2.107-6.116,2.107c-0.398,0-0.79-0.022-1.175-0.068c2.179,1.396,4.767,2.211,7.548,2.211
	c9.057,0,14.008-7.502,14.008-14.008c0-0.215-0.004-0.428-0.013-0.637C22.507,6.411,23.341,5.544,24,4.558z"/>
</symbol><symbol id="icon-world" viewBox="0 0 36 36">
<g id="world-shape">
	<path d="M29.918,13.192c0,0.225,0.255,0.321,0.273,0.615c0.013,0.219-0.198,0.5,0.2,0.589
		c0.055,0.228,0.46,0.309,0.52,0.07c-0.256,0,0.005-0.378-0.142-0.378c0-0.122-0.084-0.122-0.095-0.259
		c0.032-0.024,0.207,0.009,0.283,0c-0.013-0.139-0.188-0.236-0.188-0.355c-0.066,0-0.226,0.18-0.216-0.015
		c0.011-0.217-0.042-0.123-0.139-0.268c-0.027,0-0.137-0.251-0.094-0.307c0.11,0,0.101,0.027,0.236-0.024
		c0.02,0,0.325-0.095,0.189-0.095c-0.159-0.16-0.045-0.362-0.37-0.266c-0.173,0.052-0.26,0.231-0.456,0.243
		C29.918,12.783,29.709,13.192,29.918,13.192z"/>
	<path d="M28.902,13.57c0.015-0.426-0.355-0.354-0.472-0.591c-0.122,0-0.165-0.094-0.331-0.094
		c-0.107-0.036-0.192-0.011-0.254,0.076c-0.252,0.097-0.099-0.124-0.289-0.124c0.008-0.244-0.087-0.31-0.355-0.283
		c-0.154,0.347-0.39,0.555-0.354,0.945c0.113,0.027,0.093,0.052,0.071,0.166c0.152,0.008,1.063-0.047,1.063-0.142
		c0.031,0,0.19,0.326,0.19,0.047c0.127,0,0.194,0.299,0.496,0.212C28.666,13.843,29.172,13.57,28.902,13.57z"/>
	<path d="M14.295,18.01c0,0.025,0,0.047,0,0.072c0.029-0.009,0.042-0.025,0.071-0.025
		C14.366,18.027,14.325,18.01,14.295,18.01z"/>
	<path d="M18,0C8.059,0,0,8.059,0,18c0,9.941,8.059,18,18,18c9.941,0,18-8.059,18-18C36,8.059,27.941,0,18,0z
		 M22.072,11.593c-0.216,0.066-0.047-0.172-0.043-0.291c0.025,0,0.491,0.021,0.212-0.071c-0.014-0.254-0.072-0.331-0.307-0.331
		c0-0.174-0.06-0.161-0.089-0.351c-0.041-0.281,0.219,0.02,0.302-0.286c0.191,0,0.024,0.141-0.018,0.142
		c0.032,0.012-0.006,0.127-0.006,0.165c0.176-0.002,0.18-0.11,0.307-0.142c-0.027,0.159-0.203,0.19-0.031,0.325
		c0.091,0.072,0.186,0.157,0.149,0.266c0.226,0,0.258,0.218,0.212,0.473c0.125,0,0.119,0.006,0.119-0.119
		c0.122,0.034,0.112,0.142,0,0.142c-0.112,0.222-0.406,0.212-0.615,0.212C22.263,11.556,22.229,11.545,22.072,11.593z
		 M22.075,11.798c0,0.059-0.119,0.105-0.142,0.024c0.023,0.008,0.031,0,0.023-0.024C21.997,11.798,22.036,11.798,22.075,11.798z
		 M23.848,13.665c0.041,0.167,0.07,0.099,0.07-0.047c0.095,0,0.122,0.434-0.142,0.354C23.776,13.863,23.707,13.665,23.848,13.665z
		 M23.8,13.334c0.111,0.047,0.157,0.032,0.142-0.047c0.144,0.047-0.019,0.15-0.047,0.259C23.822,13.474,23.844,13.448,23.8,13.334z
		 M24.036,14.515c0-0.023,0-0.048,0-0.071c0.178,0.043,0.505,0.762,0.473,0.922c0.137,0,0.264-0.023,0.355,0
		c0,0.153,0.287,0.191,0.417,0.197c0.181,0.009,0.716-0.018,0.716-0.268c0.139,0,0.264,0.099,0.237,0.26
		c0.16,0.017,1.106,0.036,1.038,0.236c0.138,0,0.174,0.237,0.308,0.237c-0.027,0.163,0.165,0.59,0.307,0.59
		c0,0.142,0.088,0.403,0.213,0.496c0.067,0.203,0.288,0.631,0.496,0.756c-0.088,0.168,0.134,0.306,0.189,0.473
		c-0.012,0,0.048,0.248,0.118,0.284c0,0.168,0.352,0.851,0.544,0.851c0.012,0.083-0.181,0.121,0.07,0.139
		c0.034,0.002,0.26-0.004,0.26-0.045c0.205,0,0.484-0.029,0.685-0.094c0,0.305-0.256,0.477-0.213,0.78
		c-0.17,0-0.095,0.175-0.095,0.235c-0.11,0.069-0.127,0.194-0.259,0.26c0,0.137-0.307,0.364-0.397,0.482
		c-0.102,0.13-0.41,0.359-0.45,0.525c0.01-0.04-0.562,0.599-0.429,0.599c0,0.12-0.161,1.062,0.047,1.062
		c0,0.084,0.178,0.875,0.07,0.875c0,0.254-0.165,0.409-0.165,0.613c-0.08,0.055-0.196,0.085-0.236,0.166
		c-0.145,0-0.214,0.308-0.283,0.308c0,0.328-0.094,0.572-0.094,0.944c0.026,0-0.189,0.532-0.189,0.567
		c-0.173,0.117-0.614,0.538-0.614,0.756c0,0-0.307,0.433-0.354,0.496c-0.091,0-0.803,0.134-0.803,0.189
		c-0.153,0-0.543,0.121-0.638-0.023c0-0.151-0.082-0.34-0.095-0.544c-0.073,0-0.084-0.307-0.164-0.307
		c0-0.066-0.451-0.97-0.378-0.97c0-0.093-0.081-0.401-0.095-0.401c0-0.326-0.237-0.598-0.237-0.898c-0.07,0-0.213-0.661-0.141-0.661
		c0-0.346,0.121-0.574,0.171-0.959c0.055-0.422-0.027-0.68-0.101-0.979c-0.04,0-0.175-0.226-0.189-0.283
		c-0.19-0.126-0.26-0.376-0.26-0.614c0.124-0.141,0.174-0.674,0.142-0.851c-0.238-0.114-0.333-0.071-0.591-0.071
		c-0.152-0.306-1.175-0.118-1.465-0.118c0,0.167-0.712-0.032-0.779-0.166c-0.174,0-0.519-0.37-0.519-0.543
		c-0.19-0.127-0.495-0.759-0.495-0.969c-0.165-0.083-0.115-0.401-0.024-0.401c0.022-0.089-0.057-0.368-0.096-0.502
		c-0.029-0.099,0.096-0.207,0.096-0.325c0-0.329,0.008-0.481,0.191-0.833c0.057-0.111,0.132-0.214,0.186-0.352
		c0.099-0.247,0.128-0.012,0.261-0.233c0.126-0.063,0.201-0.274,0.331-0.378c0.057-0.076,0.059-0.107,0-0.166
		c0.026,0,0.165-0.364,0.165-0.447c0.184-0.258,0.053-0.14,0.236-0.119c0.067-0.073,0.178-0.26,0.283-0.26
		c0.046-0.091,0.162-0.141,0.259-0.141c0,0.141,0.385-0.047,0.426-0.047c0.066-0.133,0.49-0.283,0.59-0.283
		C23.067,14.329,23.903,14.536,24.036,14.515z M24.414,14.326c0.036-0.141,0.118-0.031,0.196-0.006
		c0.181,0.059,0.118-0.003,0.252-0.064C24.863,14.64,24.643,14.348,24.414,14.326z M30.012,24.176c0-0.085,0.015-0.075,0.071-0.118
		C30.108,24.181,30.131,24.215,30.012,24.176z M21.248,11.562c-0.127-0.127-0.005-0.194,0.024-0.33
		c-0.233-0.06,0.239-0.129,0.259-0.189c-0.079,0-0.133-0.082-0.103-0.151c0.035-0.081,0.094,0.097,0.175,0.056
		c0.095-0.01,0.283-0.153,0.187,0.124C21.692,11.352,21.602,11.556,21.248,11.562z M19.146,8.87c0,0,0.271-0.119,0.308-0.119
		c0,0.047-0.053,0.026,0.023,0.047c0.012,0.043-0.004,0.165,0,0.165c0,0.057,0.363-0.067,0.416-0.074
		c0.285-0.04,0.364-0.23,0.364,0.074c0.157,0.058,0.124-0.041,0.237-0.094c0,0.123,0.115,0.116-0.036,0.21
		C20.32,9.169,20.207,9.2,20.033,9.2c-0.054,0-0.462,0.073-0.462,0.023c-0.15,0-0.27-0.074-0.449-0.095
		C19.122,9.06,19.377,8.87,19.146,8.87z M29.328,24.838c0.095,0.071,0.167,0.204,0.236,0c-0.17-0.034-0.128-0.093-0.071-0.236
		c0.115,0.071,0.45,0.189,0.45-0.071c-0.273,0,0.047-0.452,0.047-0.165c0.241,0,0.087-0.3,0.189-0.402
		c0,0.122,0.063,0.47,0.142,0.497c0.186,0.17-0.142,0.228-0.142,0.354c-0.082,0.041-0.07,0.21-0.07,0.26c-0.039,0-0.079,0-0.118,0
		c-0.013,0.235-0.118,0.495-0.118,0.685c-0.108,0-0.076,0.381-0.088,0.633c-0.057,0.08-0.112,0.162-0.171,0.24
		C29.026,26.704,29.235,25.116,29.328,24.838z M32.42,16.789c-0.193,0.007-0.437-0.043-0.518-0.077c-0.474,0-0.874-0.45-1.346-0.308
		c0.007-0.023-0.001-0.031-0.024-0.023c0.039-0.116-0.354-0.805-0.522-0.502c-0.045,0.082,0.139,0.38,0.216,0.431
		c0,0.064,0.041,0.204,0.095,0.257c0.137,0.134-0.032,0.177-0.001,0.263c0.174,0,0.148-0.033,0.19-0.284
		c0.022,0.016,0.017,0.024,0.047,0.024c-0.023,0.095-0.008,0.182,0.043,0.261c0.175,0.268-0.04,0.016,0.028,0.212
		c0.242,0,0.472-0.131,0.591-0.426c0.09,0.067-0.019,0.168,0.07,0.212c0.079,0.092,0.155,0.136,0.105,0.245
		c-0.034,0.073,0.201,0.215,0.155-0.055c0.258,0.073,0.214,0.393,0.025,0.519c0,0.123-0.119,0.135-0.119,0.296
		c0,0.104-0.077,0.286-0.166,0.318c0,0.063-0.704,0.368-0.661,0.496c-0.124,0-0.558,0.125-0.638,0.284
		c-0.087,0-0.441,0.125-0.473,0.189c-0.439,0-0.355-0.519-0.567-0.519c0.016-0.087-0.043-0.125-0.094-0.213
		c0.134,0-0.425-1.042-0.425-1.205c-0.085-0.042-0.195-0.34-0.214-0.448c-0.116-0.077-0.235-0.329-0.284-0.473
		c-0.117-0.078-0.402-0.427-0.448-0.591c0.169,0.019,0.425,0.053,0.425-0.165c-0.115,0-0.131-0.141-0.024-0.141
		c-0.036-0.145,0.077-0.25,0.101-0.362c0.029-0.137,0.088-0.348,0.088-0.512c-0.163,0-0.202,0.028-0.331,0.071
		c0,0.096-0.288-0.024-0.331-0.024c-0.061-0.124-0.509,0.162-0.637-0.095c-0.203-0.184-0.149-0.326-0.214-0.587
		c-0.034-0.132-0.213-0.139-0.322-0.161c-0.308-0.06-0.086,0.367-0.102,0.465c0.189,0-0.119,0.235-0.119,0.354
		c-0.319-0.069-0.212-0.425-0.401-0.519c-0.056-0.094-0.01-0.165-0.142-0.165c0-0.127,0.069-0.356-0.071-0.402
		c0-0.061-0.267-0.086-0.307-0.165c-0.169,0-0.563-0.641-0.683-0.425c-0.077,0.138,0.064,0.172,0.092,0.284
		c0.244-0.049,0.22,0.404,0.52,0.354c0,0.064,0.008,0.127,0.023,0.19c0.221-0.052,0.196,0.165,0.307,0.165
		c-0.081,0.108-0.336-0.171-0.267,0.063c0.041,0.136,0.018,0.252-0.158,0.386c0-0.147-0.012-0.543-0.165-0.543
		c-0.105-0.209-0.414-0.159-0.544-0.354c-0.107,0-0.148-0.331-0.33-0.355c-0.034,0.048-0.163,0.095-0.212,0.095
		c-0.099,0.2-0.661,0.02-0.661,0.047c-0.009,0.003-0.315,0.752-0.331,0.85c-0.035,0.212-0.205,0.216-0.257,0.417
		c-0.026,0.101-0.641,0.053-0.641,0.127c-0.265-0.089-0.496-0.275-0.496-0.567c-0.022,0,0.05-0.742,0.095-0.851
		c0.054,0.015,0.065,0.034,0.095,0.095c0.163-0.061,0.543,0.04,0.543-0.142c0.159,0.004,0.206,0.067,0.142,0.19
		c0.148,0.028,0.402,0.065,0.402-0.142c-0.086,0-0.094-0.008-0.094-0.095c0.282-0.295-0.213-0.561-0.213-0.708
		c-0.099-0.033-0.304-0.251-0.159-0.169c0.122,0.068,0.572,0.209,0.395-0.091c0.012-0.004,0.02-0.012,0.024-0.023
		c0.049,0.036,0.26,0.254,0.26,0.047c0.058,0,0.283-0.142,0.095-0.142c0.017-0.106,0.013-0.195,0.024-0.261
		c0.298,0.162,0.131-0.11,0.284-0.212c0,0.196,0.161-0.095,0.259-0.095c0.116-0.175,0.383-0.039,0.448-0.237
		c-0.145-0.048-0.118-0.41-0.118-0.543c0.173,0.029,0.366-0.236,0.394-0.054c0.01,0.07,0.018,0.263,0.054,0.29
		c0.258,0.135,0.19-0.078,0.19-0.212c-0.086,0-0.201-0.304-0.214-0.449c-0.071,0.01-0.185,0.039-0.213,0.094
		c-0.258,0-0.433-0.094-0.637-0.094c-0.015-0.031-0.261-0.308-0.237-0.308c-0.143-0.248,0.145-0.176,0.19-0.188
		c0-0.235,0.974-0.194,1.016-0.568c-0.32,0,0.33-0.544,0.33-0.542c0.218-0.187,0.332-0.347,0.602-0.367
		c0.115-0.008,1.382-0.359,1.382-0.2c0.125,0.004,0.922,0.001,0.922,0.094c0.127,0,0.409,0.14,0.5,0.091
		c0.156-0.084,0.799,0.189,0.799,0.405c-0.302,0-0.718,0.071-1.111,0.071c0,0.087,0.043,0.009,0,0.094
		c0.137,0,0.379,0.353,0.355,0.473c0.193,0.003,0.268-0.142,0.401-0.142c0,0.163,0.189,0.19,0.236,0
		c-0.146,0-0.074-0.212-0.047-0.212c0.095-0.173,0.292-0.005,0.383-0.201C30.949,10.919,32.165,13.719,32.42,16.789z M8.147,7.409
		C8.216,7.401,8.38,7.294,8.413,7.286c0,0.147-0.035,0.156,0.024,0.331c0.027,0,0.167,0.231,0.164,0.33
		c0.129-0.009,0.314-0.092,0.355,0.072C8.893,8.018,8.83,8.01,8.768,7.994c0.045,0.366-0.159,0.142-0.33,0.142
		c0-0.024-0.518-0.232-0.308,0.118c0.055,0,0.026,0.086,0.183,0.139C8.495,8.454,8.695,8.49,8.886,8.519
		c0.155,0.025,0.245-0.028,0.378-0.028c0-0.02,0.324-0.165,0.095-0.165c0.032-0.13-0.026-0.162-0.166-0.165
		c0.012-0.138,0.339-0.048,0.472-0.048c0.102-0.172,0.004-0.152,0.093-0.309c0.108-0.192,0.237-0.026,0.308-0.21
		c0.107,0.041,0.202,0.099,0.236,0.235c0.085,0.071,0.52,0.714,0.52,0.26c0.156,0.052,0.233,0.344,0.236,0.497
		c0.282-0.041,0.307-0.254,0.307-0.473c0.066,0-0.024-0.106-0.024-0.142c0.105-0.039,0.236,0.1,0.236-0.047
		c0.046,0,0.048,0.045,0.048,0.095c0.147,0.029,0.24-0.017,0.331,0.014c0.062,0.023,0.03,0.344,0.002,0.458
		c-0.036,0.145-0.309,0.147-0.309,0.213c-0.311,0.233,0.366,0.354,0.473,0.496c-0.065,0-0.307-0.032-0.307-0.047
		c-0.153,0-0.525,0.163-0.661,0.047c0.191,0,0.255-0.23,0.283-0.448c-0.175-0.066-0.383,0.043-0.433,0.218
		c-0.082,0.289-0.274-0.011-0.37,0.184c-0.037,0.012-0.378,0.171-0.378,0.118c-0.383,0.055-0.283,0.381-0.283,0.733
		c0.153,0.092,0.463,0.353,0.448,0.496c0.345,0.061,0.47,0.097,0.78,0.142c0.026,0.051,0.127,0.097,0.189,0.117
		c0,0.202,0.184,0.166,0.354,0.166c0-0.26,0.301,0.216,0.331,0.307c-0.042,0,0.071,0.265,0.094,0.355
		c-0.047-0.017-0.062,0-0.047,0.047c0.149,0.054,0.386,0.039,0.425-0.119c-0.144,0-0.095-0.164-0.095-0.26
		c-0.148-0.099-0.125-0.289,0.024-0.33c0,0.134,0.486-0.084,0.212-0.189c0.067-0.151,0.112-0.383,0.003-0.513
		c-0.07-0.083-0.157,0-0.192-0.124c0.186-0.047,0.049-0.401,0.047-0.567c0.059-0.023,0.213,0.038,0.213,0
		c0.182,0,0.484,0.231,0.59-0.048c0.304,0.139,0.062,0.271,0.378,0.166c0,0.075,0.356,0.425,0.402,0.425
		c0,0.016-0.008,0.118,0.07,0.118c0,0.076-0.047-0.044-0.047,0.094c0.044,0.004,0.284,0.048,0.284-0.047
		c0.152,0,0.26-0.188,0.26-0.331c0.095-0.062,0.262,0.52,0.377,0.52c0.085,0.132,0.355,0.324,0.355,0.448
		c0.057,0.058,0.118,0.043,0.118,0.213c0.072,0,0.213-0.283,0.213-0.024c0.067,0,0.26,0.144,0.283,0.259
		c-0.169,0-0.008,0.166-0.095,0.166c0,0.163-0.365,0.033-0.448,0.023c-0.113,0.508-0.795,0.143-1.207,0.274
		c-0.217,0.07-0.637,0.55-0.66,0.789c0.264,0.003,0.379-0.229,0.614-0.308c0.192,0,0.229-0.117,0.402-0.165
		c0,0.048,0.047,0.023,0.047,0.071c-0.337,0-0.132,0.218-0.034,0.377c0.094,0.153,0.202,0.206,0.341,0.213
		c-0.035,0.107-0.212,0.022-0.212,0.142c-0.064,0.021-0.189,0.068-0.213,0.118c-0.381,0.043-0.193,0.017-0.168-0.075
		c0.014,0.033,0.151,0.003,0.145,0.004c-0.023-0.114-0.057-0.099-0.023-0.166c-0.207,0-0.307,0.095-0.473,0.095
		c-0.028,0.056-0.172,0.189-0.236,0.189c-0.048,0.147-0.157,0.412-0.284,0.496c0-0.038-0.336,0.212-0.307,0.212
		c-0.075,0.121-0.157,0.117-0.189,0.307c-0.023,0.012-0.118,0.329-0.118,0.378c-0.147,0.097-0.201,0.497-0.449,0.497
		c-0.152,0.304-0.425,0.263-0.425,0.662c0.093,0.095,0.128,0.513,0.156,0.649c0.035,0.167,0.091,0.34-0.132,0.344
		c-0.015-0.025-0.17-0.26-0.142-0.26c0-0.098-0.119-0.41-0.189-0.507c-0.093-0.131-0.266,0.021-0.402-0.036
		c-0.058-0.116-0.45-0.142-0.59-0.142c0.023,0.088,0.087,0.115,0.094,0.213c-0.116,0.048-0.183,0.101-0.302,0.083
		c-0.206-0.029-0.181-0.189-0.407-0.166c-0.362,0.037-0.614,0.337-0.614,0.697c-0.039,0-0.039,0.708,0,0.708
		c0,0.2,0.165,0.345,0.165,0.497c0.161,0,0.341,0.354,0.497,0.354c0.018,0.125-0.078,0.145,0.189,0.142
		c0-0.014,0.146-0.091,0.165-0.19c-0.185-0.045-0.001-0.284,0.118-0.33c0,0.168,0.236-0.056,0.236-0.071
		c0.027-0.011,0.261-0.094,0.26-0.094c0-0.191,0.178,0.019,0.047,0.094c-0.128,0-0.118,0.213-0.189,0.213
		c-0.03,0.152-0.09,0.284-0.126,0.431c-0.045,0.182,0.102,0.201,0.055,0.372c0.189,0.035,0.378,0.001,0.567,0
		c0.002-0.034-0.006-0.066-0.023-0.094c0.274,0,0.023,0.519,0.189,0.519c0,0.197,0.094,0.35,0.094,0.473
		c0.128,0.085,0.205,0.198,0.166,0.354c0.157,0.022,0.496,0.062,0.496-0.142c0.238,0,0.256,0.163,0.237,0.33
		c0.476,0,0.178-0.473,0.377-0.473c0.019-0.078,0.051-0.091,0.097-0.041c0.097,0.052,0.171-0.097,0.249-0.146
		c0.025-0.016,0.111-0.067,0.126-0.067c0.068,0.04,0.073,0.029,0.102,0.074c0.129-0.001,0.26-0.074,0.372-0.152
		c0.17,0.022,0.115,0.387,0.434,0.41c0.128,0.009,0.424,0.045,0.534-0.031c0.028-0.018,0.128,0.064,0.14,0.098
		c0.106,0,0.096,0.093,0.143,0.091c0.01,0.021,0.026,0.029,0.047,0.023c0.013,0.04,0.099,0.051,0.142,0.165
		c0,0.103,0.212,0.121,0.212,0.189c0.153,0.077-0.052,0.098,0.181,0.169c0.129,0.04,0.248,0.105,0.387,0.114
		c0.043-0.168,0.188,0.025,0.259,0.025c0.038,0.076,0.056,0.017,0.094,0.094c0.218,0.182,0.074,0.112,0.165,0.307
		c0.105,0.07,0.138,0.31,0.166,0.449c-0.084,0-0.024,0.324-0.024,0.354c-0.103,0,0.26,0.196,0.26-0.047
		c0.149,0.025,0.247,0.189,0.354,0.189c-0.062,0.142,0.165,0.249,0.165,0.024c0.224,0.023,0.164,0.359,0.142,0.472
		c0.186,0,0.207-0.129,0.398-0.123c0.111,0.002,0.222,0.082,0.264-0.042c0.265,0.089,0.376,0.177,0.553,0.335
		c0.305,0.27,0.353,0.965,0.037,1.2c0,0.044-0.344,0.426-0.353,0.426c0,0.047-0.011,0.52-0.025,0.52
		c0,0.093-0.072,0.614-0.141,0.614c0,0.267-0.174,0.316-0.236,0.567c-0.143,0.107-0.532,0.284-0.591,0.402
		c-0.112,0-0.195,0.094-0.308,0.094c-0.016,0.033-0.256,0.26-0.212,0.26c-0.018,0.168,0.012,0.562-0.079,0.672
		c-0.06,0.073-0.148,0.066-0.11,0.179c-0.133,0,0.007,0.094-0.201,0.094c-0.132,0-0.366,0.189-0.374,0.348
		c-0.009,0.196-0.061,0.336-0.229,0.456c0,0.067-0.307,0.086-0.307,0.259c0.029,0,0,0.322,0,0.355
		c-0.091-0.003-0.316,0.089-0.355,0.164c-0.309,0-0.271,0.032-0.472,0.165c0,0.042-0.028,0.189-0.071,0.189
		c0,0.24-0.169,0.022-0.307,0.142c0.054,0,0.123,0.236,0.095,0.236c0,0.208-0.129,0.226-0.259,0.378
		c-0.063,0.042-0.121,0.212-0.166,0.212c0,0.14-0.07,0.268-0.07,0.402c0.03,0,0.002,0.06,0.023,0.117
		c0.067-0.019,0.068-0.094,0.095-0.094c0-0.118,0.188,0.071,0.071,0.071c-0.098,0.147-0.202,0.15-0.261,0.354
		c-0.168,0-0.323,0.425-0.165,0.425c0,0.077,0.028,0.141,0.064,0.201c-0.385-0.108-0.764-0.229-1.135-0.367
		c-0.016-0.433-0.004-1.559,0.15-1.559c0-0.072,0.063-0.378,0.118-0.378c0-0.188,0.023-0.412,0-0.638
		c-0.07-0.141,0.092-0.322,0.142-0.543c0.272-0.136,0.079-1.512,0.284-1.512c0-0.687,0.153-1.087,0.046-1.725
		c0.052,0-0.31-0.385-0.307-0.378c-0.347,0-0.59-0.558-0.59-0.803c-0.034-0.108-0.119-0.269-0.119-0.402
		c0.08,0-0.496-0.844-0.496-0.826c-0.304-0.169,0.017-0.407,0.048-0.685c-0.264-0.088,0.003-0.803,0.118-0.803
		c0.012-0.09,0.059-0.153,0.142-0.189c0.059,0.235,0.333-0.118,0.118-0.118c0-0.156-0.017-0.489,0-0.567
		c0-0.241-0.212-0.711-0.378-0.213c-0.177-0.088-0.623-0.072-0.662-0.354c0.028-0.138-0.254-0.423-0.354-0.473
		c0.092-0.243-0.479-0.567-0.685-0.567c0-0.052-0.109-0.028-0.142-0.094c-0.21,0-0.259-0.284-0.496-0.284
		c-0.274,0-0.55-0.189-0.803-0.189c-0.085-0.169-0.476-0.103-0.567-0.284c-0.205,0-0.286-0.391-0.291-0.535
		c-0.008-0.174-0.149-0.787-0.394-0.787c0-0.149-0.338-0.402-0.425-0.402c0-0.027-0.137-0.331-0.189-0.331
		c0-0.102-0.358-0.562-0.416-0.361C6.779,15.7,7.09,15.875,7.09,16.027c0.058,0,0.302,0.463,0.351,0.545
		c0.532,0.902-0.398,0.286-0.398-0.096c-0.119-0.06-0.307-0.513-0.307-0.638c-0.07-0.056-0.276-0.495-0.259-0.495
		c0-0.289-0.158-0.426-0.473-0.426c-0.015-0.029-0.279-0.401-0.284-0.401c0-0.118-0.212-0.485-0.33-0.543
		c0-0.245-0.126-0.548-0.07-0.803c0-0.444-0.008-0.996-0.412-1.333C5.7,10.158,6.805,8.658,8.147,7.409z M15.288,12.578
		c0,0.124-0.058,0.157-0.189,0.165C15.127,12.628,15.168,12.648,15.288,12.578z M14.532,18.058c-0.072,0-0.165,0.068-0.119-0.071
		C14.468,17.987,14.532,18.008,14.532,18.058z M13.516,18.035c-0.039,0.075-0.358,0.062-0.402-0.025c0.118,0,0.209,0.048,0.33,0
		c0-0.065-0.054-0.117-0.094-0.188c0.128,0,0.273,0.098,0.449,0.094c0-0.109-0.048,0.024,0-0.119
		c0.074,0.019,0.251,0.188,0.259,0.26C13.8,18.029,13.789,18.035,13.516,18.035z M13.705,19.145
		c-0.019,0.067-0.016,0.071-0.094,0.071c0.008-0.032,0.015-0.063,0.023-0.094C13.658,19.128,13.681,19.136,13.705,19.145z
		 M12.476,17.468c-0.12,0-0.354-0.105-0.425-0.213c0.117,0.005,0.233,0.053,0.307-0.071c0.3,0.031,0.326,0.237,0.567,0.237
		c0.045,0.08,0.302,0.263,0.054,0.287C12.792,17.727,12.555,17.624,12.476,17.468z M12.83,18.105
		c-0.047,0.008-0.094,0.016-0.141,0.024C12.702,18.02,12.806,17.898,12.83,18.105z M12.666,18.129c-0.088,0-0.232,0.038-0.166-0.142
		C12.617,18.003,12.672,18.05,12.666,18.129z M11.815,17.232c0,0.136-0.317,0.176-0.236-0.048c0.024,0.008,0.048,0.017,0.071,0.024
		C11.68,17.325,11.744,17.266,11.815,17.232z"/>
</g>
</symbol><symbol id="icon-x" viewBox="-16 24 18 18">
<rect id="bar-bottom" x="-18.2" y="31.5" transform="matrix(0.7071 -0.7071 0.7071 0.7071 -25.3848 4.7157)" width="22.4" height="3"/>
<rect id="bar-top" x="-18.2" y="31.5" transform="matrix(0.7071 0.7071 -0.7071 0.7071 21.2843 14.6152)" width="22.4" height="3"/>
</symbol></svg>