<svg xmlns="http://www.w3.org/2000/svg" style="display:none"><symbol id="icon-compass" viewBox="0 0 98 98">
<path d="M49,97.5C26.7,97.5,8.5,79.3,8.5,57c0-22.3,18.2-40.5,40.5-40.5c22.3,0,40.5,18.2,40.5,40.5
	C89.5,79.3,71.3,97.5,49,97.5z M13.5,57c0,19.6,15.9,35.5,35.5,35.5c19.6,0,35.5-15.9,35.5-35.5c0-19.6-15.9-35.5-35.5-35.5
	C29.4,21.5,13.5,37.4,13.5,57z"/>
<path id="pointer" d="M59.5,11.5L49,9.5l-10.5,2L49,0.5L59.5,11.5z"/>
</symbol><symbol id="icon-facebook--reversed" viewBox="-24 25 15 15">
<path id="letter" d="M-13.3,32.5h-2c0,3.3,0,7.5,0,7.5h-3.2c0,0,0-4,0-7.5H-20v-2.7h1.5v-1.7c0-1.3,0.5-3.1,3.1-3.1
	h2.3v2.5c0,0-1.4,0-1.7,0c-0.2,0-0.7,0.1-0.7,0.7v1.5h2.5L-13.3,32.5z"/>
</symbol><symbol id="icon-facebook" viewBox="0 0 44 44">
<g id="icon-facebook">
	<path d="M22,0C9.8,0,0,9.8,0,22s9.8,22,22,22s22-9.8,22-22S34.2,0,22,0z M26.7,22h-3c0,4.9,0,11,0,11h-4.6
		c0,0,0-5.9,0-11h-2.2v-3.9h2.2v-2.5c0-1.9,0.8-4.6,4.6-4.6h3.4v3.7c0,0-2,0-2.5,0c-0.3,0-1,0.2-1,1v2.2h3.6L26.7,22z"/>
</g>
</symbol><symbol id="icon-linkedin" viewBox="0 0 44 44">
<g id="icon-linkedin">
	<path d="M22,0C9.8,0,0,9.8,0,22s9.8,22,22,22s22-9.8,22-22S34.2,0,22,0z M16.1,32.5h-4.7V18.3h4.7V32.5z M13.7,16.4
		L13.7,16.4c-1.7,0-2.7-1-2.7-2.4s1-2.4,2.7-2.4s2.5,1,2.7,2.4C16.2,15.2,15.2,16.4,13.7,16.4z M33,32.5h-4.7v-7.6
		c0-1.9-0.7-3.2-2.4-3.2c-1.4,0-2,0.8-2.4,1.7c-0.2,0.3-0.2,0.7-0.2,1.2v8h-4.7c0,0,0-12.9,0-14.2h4.7v2c0.7-1,1.7-2.4,4.2-2.4
		c3,0,5.4,2,5.4,6.4C33,24.4,33,32.5,33,32.5z"/>
</g>
</symbol><symbol id="icon-pinterest" viewBox="0 0 44 44">
<g id="icon-pinterest">
	<path d="M22.1,0.2C10,0.2,0.2,10,0.2,22.2c0,8.9,5.4,16.7,13.1,20.1c0-1.5,0-3.4,0.3-5.1c0.3-1.9,2.9-12,2.9-12
		s-0.7-1.3-0.7-3.5c0-3.2,1.9-5.7,4.2-5.7c2,0,3,1.5,3,3.4c0,2-1.3,5.1-1.9,7.8c-0.5,2.4,1.2,4.2,3.5,4.2c4.2,0,6.9-5.4,6.9-11.6
		c0-4.7-3.2-8.4-9.1-8.4c-6.6,0-10.8,4.9-10.8,10.5c0,1.9,0.5,3.2,1.5,4.2c0.3,0.5,0.5,0.7,0.3,1.2c-0.2,0.3-0.3,1.3-0.5,1.7
		c-0.2,0.5-0.7,0.7-1.2,0.5c-3-1.2-4.6-4.6-4.6-8.4c0-6.2,5.2-13.7,15.7-13.7c8.4,0,13.8,6.1,13.8,12.5c0,8.6-4.7,15-11.8,15
		c-2.4,0-4.6-1.3-5.4-2.7c0,0-1.3,5.1-1.5,6.1c-0.5,1.7-1.3,3.4-2.2,4.7c2,0.5,4,0.8,6.2,0.8c12.1,0,21.9-9.8,21.9-21.9
		C44,10,34.3,0.2,22.1,0.2z"/>
</g>
</symbol><symbol id="icon-twitter--reversed" viewBox="-24 25 15 15">
<path id="bird" d="M-10.5,29.5c0,0.1,0,0.2,0,0.3c0,4-3.1,8.8-8.8,8.8c-1.7,0-3.3-0.5-4.7-1.4c0.2,0,0.5,0,0.7,0
	c1.5,0,2.8-0.5,3.9-1.3c-1.4,0-2.5-1-2.9-2.2c0.2,0,0.3,0,0.5,0s0.5,0,0.8-0.1c-1.4-0.2-2.5-1.5-2.5-3l0,0c0.5,0.2,1,0.3,1.4,0.3
	c-0.8-0.3-1.4-1.3-1.4-2.5c0-0.5,0.1-1,0.5-1.5c1.5,1.8,3.9,3.1,6.4,3.2c0-0.2-0.1-0.5-0.1-0.7c0-1.7,1.4-3.1,3.1-3.1
	c1,0,1.7,0.3,2.2,1c0.7-0.1,1.4-0.3,2-0.7c-0.2,0.7-0.7,1.4-1.3,1.7c0.5-0.1,1.2-0.2,1.7-0.5C-9.5,28.7-10,29.2-10.5,29.5z"/>
</symbol><symbol id="icon-twitter" viewBox="0 0 44 44">
<g id="icon-twitter">
	<path d="M22,0C9.8,0,0,9.8,0,22s9.8,22,22,22s22-9.8,22-22S34.2,0,22,0z M30.8,17.4c0,0.2,0,0.3,0,0.5
		c0,5.9-4.6,12.9-12.9,12.9c-2.5,0-4.9-0.7-6.9-2c0.3,0,0.7,0,1,0c2.2,0,4.1-0.7,5.6-1.9c-2,0-3.7-1.4-4.2-3.2c0.3,0,0.5,0,0.8,0
		s0.8,0,1.2-0.2c-2-0.3-3.6-2.2-3.6-4.4l0,0c0.7,0.3,1.4,0.5,2,0.5c-1.2-0.5-2-1.9-2-3.6c0-0.8,0.2-1.5,0.7-2.2
		c2.2,2.7,5.6,4.6,9.3,4.7c0-0.3-0.2-0.7-0.2-1c0-2.5,2-4.6,4.6-4.6c1.4,0,2.5,0.5,3.2,1.4c1-0.2,2-0.5,2.9-1c-0.3,1-1,2-1.9,2.5
		c0.8-0.2,1.7-0.3,2.5-0.7C32.3,16.1,31.6,16.9,30.8,17.4z"/>
</g>
</symbol><symbol id="icon-x" viewBox="-16 24 18 18">
<rect id="bar-bottom" x="-18.2" y="31.5" transform="matrix(0.7071 -0.7071 0.7071 0.7071 -25.3848 4.7157)" width="22.4" height="3"/>
<rect id="bar-top" x="-18.2" y="31.5" transform="matrix(0.7071 0.7071 -0.7071 0.7071 21.2843 14.6152)" width="22.4" height="3"/>
</symbol><symbol id="icon-youtube" viewBox="0 0 44 44">
<g id="icon-youtube">
	<g id="Lozenge_2_">
		<path d="M43.6,13.2c0,0-0.4-3-1.7-4.4C40.2,7,38.4,7,37.5,6.9C31.2,6.5,22,6.5,22,6.5l0,0c0,0-9.2,0-15.4,0.4
			C5.7,7,3.9,7,2.2,8.8c-1.3,1.3-1.7,4.4-1.7,4.4s-0.4,3.6-0.4,7.1v3.3c0,3.6,0.4,7.1,0.4,7.1s0.4,3,1.7,4.4
			c1.7,1.8,3.9,1.7,4.9,1.9c3.5,0.3,15,0.4,15,0.4s9.2,0,15.4-0.5c0.9-0.1,2.7-0.1,4.4-1.9c1.3-1.3,1.7-4.4,1.7-4.4S44,27,44,23.5
			v-3.3C43.9,16.8,43.6,13.2,43.6,13.2z M17.4,27.7V15.3l11.9,6.2L17.4,27.7z"/>
	</g>
</g>
</symbol></svg>