<svg xmlns="http://www.w3.org/2000/svg" style="display:none"><symbol id="icon-chevron--down--reversed" viewBox="-28.5 25 11 11">
<polygon id="chevron" points="-28.5,27.5 -23,30.7 -17.5,27.5 -17.5,30.3 -23,33.5 -28.5,30.3 "/>
</symbol><symbol id="icon-chevron--down" viewBox="-30.5 27 11 11">
<polygon id="chevron" points="-30.5,29.5 -25,32.7 -19.5,29.5 -19.5,32.3 -25,35.5 -30.5,32.3 "/>
</symbol><symbol id="icon-chevron--left--reversed" viewBox="-30.5 27 11 11">
<polygon id="chevron" points="-24.8,38 -28,32.5 -24.8,27 -22,27 -25.2,32.5 -22,38 "/>
</symbol><symbol id="icon-chevron--left" viewBox="-30.5 27 11 11">
<polygon id="chevron" points="-24.8,38 -28,32.5 -24.8,27 -22,27 -25.2,32.5 -22,38 "/>
</symbol><symbol id="icon-chevron--right--reversed" viewBox="0 0 6 11">
<polygon id="chevron" points="0,11 3.2,5.5 0,0 2.8,0 6,5.5 2.8,11 "/>
</symbol><symbol id="icon-chevron--right" viewBox="-30.5 27 11 11">
<polygon id="chevron" points="-28,38 -24.8,32.5 -28,27 -25.2,27 -22,32.5 -25.2,38 "/>
</symbol><symbol id="icon-compass" viewBox="0 0 98 98">
<path d="M49,97.5C26.7,97.5,8.5,79.3,8.5,57c0-22.3,18.2-40.5,40.5-40.5c22.3,0,40.5,18.2,40.5,40.5
	C89.5,79.3,71.3,97.5,49,97.5z M13.5,57c0,19.6,15.9,35.5,35.5,35.5c19.6,0,35.5-15.9,35.5-35.5c0-19.6-15.9-35.5-35.5-35.5
	C29.4,21.5,13.5,37.4,13.5,57z"/>
<path id="pointer" d="M59.5,11.5L49,9.5l-10.5,2L49,0.5L59.5,11.5z"/>
</symbol><symbol id="icon-facebook--reversed" viewBox="-24 25 15 15">
<path id="letter" d="M-13.3,32.5h-2c0,3.3,0,7.5,0,7.5h-3.2c0,0,0-4,0-7.5H-20v-2.7h1.5v-1.7c0-1.3,0.5-3.1,3.1-3.1
	h2.3v2.5c0,0-1.4,0-1.7,0c-0.2,0-0.7,0.1-0.7,0.7v1.5h2.5L-13.3,32.5z"/>
</symbol><symbol id="icon-pinterest--reversed" viewBox="-24 25 15 15">
<path id="letter" d="M-17,35.9c1.3,1,3.6,0.4,4.6-0.5c1.5-1.3,2.1-3.8,1.9-5.8c-0.2-2.2-2.3-4.2-4.8-4.5
	c-3.8-0.4-7.3,1.9-7.3,5.6c0,1.8,0.5,2.9,2.1,3.5c1-1-0.2-1.7-0.3-2.9c-0.3-3.1,3.4-6.1,6.6-4.2c2.3,1.4,1.9,7.2-0.9,7.7
	c-0.6,0.1-1.2-0.1-1.5-0.3c-1.3-1.2,1.1-3.4,0.3-5.2c-0.7-1.6-2.6-0.3-2.8,1c-0.1,0.7,0.2,1.4,0.2,2.1c0,1.5-1,3.6-1.2,5.2
	c-0.1,0.6-0.2,1.8,0,2.4l0,0h1c0.7-1.2,1.2-3,1.5-4.6C-17.3,35.4-17.2,35.8-17,35.9z"/>
</symbol><symbol id="icon-twitter--reversed" viewBox="-24 25 15 15">
<path id="bird" d="M-10.5,29.5c0,0.1,0,0.2,0,0.3c0,4-3.1,8.8-8.8,8.8c-1.7,0-3.3-0.5-4.7-1.4c0.2,0,0.5,0,0.7,0
    c1.5,0,2.8-0.5,3.9-1.3c-1.4,0-2.5-1-2.9-2.2c0.2,0,0.3,0,0.5,0s0.5,0,0.8-0.1c-1.4-0.2-2.5-1.5-2.5-3l0,0c0.5,0.2,1,0.3,1.4,0.3
    c-0.8-0.3-1.4-1.3-1.4-2.5c0-0.5,0.1-1,0.5-1.5c1.5,1.8,3.9,3.1,6.4,3.2c0-0.2-0.1-0.5-0.1-0.7c0-1.7,1.4-3.1,3.1-3.1
    c1,0,1.7,0.3,2.2,1c0.7-0.1,1.4-0.3,2-0.7c-0.2,0.7-0.7,1.4-1.3,1.7c0.5-0.1,1.2-0.2,1.7-0.5C-9.5,28.7-10,29.2-10.5,29.5z"/>
</symbol><symbol id="icon-x" viewBox="-16 24 18 18">
<rect id="bar-bottom" x="-18.2" y="31.5" transform="matrix(0.7071 -0.7071 0.7071 0.7071 -25.3848 4.7157)" width="22.4" height="3"/>
<rect id="bar-top" x="-18.2" y="31.5" transform="matrix(0.7071 0.7071 -0.7071 0.7071 21.2843 14.6152)" width="22.4" height="3"/>
</symbol></svg>