<?xml version="1.0" encoding="utf-8"?>
<!-- Generator: Adobe Illustrator 18.0.0, SVG Export Plug-In . SVG Version: 6.00 Build 0)  -->
<!DOCTYPE svg PUBLIC "-//W3C//DTD SVG 1.1//EN" "http://www.w3.org/Graphics/SVG/1.1/DTD/svg11.dtd">
<svg version="1.1" id="Layer_1" xmlns="http://www.w3.org/2000/svg" xmlns:xlink="http://www.w3.org/1999/xlink" x="0px" y="0px"
	 width="44px" height="44px" viewBox="0 0 44 44" enable-background="new 0 0 44 44" xml:space="preserve">
<g id="icon-youtube">
	<g id="Lozenge_2_">
		<path fill="#010101" d="M43.6,13.2c0,0-0.4-3-1.7-4.4C40.2,7,38.4,7,37.5,6.9C31.2,6.5,22,6.5,22,6.5l0,0c0,0-9.2,0-15.4,0.4
			C5.7,7,3.9,7,2.2,8.8c-1.3,1.3-1.7,4.4-1.7,4.4s-0.4,3.6-0.4,7.1v3.3c0,3.6,0.4,7.1,0.4,7.1s0.4,3,1.7,4.4
			c1.7,1.8,3.9,1.7,4.9,1.9c3.5,0.3,15,0.4,15,0.4s9.2,0,15.4-0.5c0.9-0.1,2.7-0.1,4.4-1.9c1.3-1.3,1.7-4.4,1.7-4.4S44,27,44,23.5
			v-3.3C43.9,16.8,43.6,13.2,43.6,13.2z M17.4,27.7V15.3l11.9,6.2L17.4,27.7z"/>
	</g>
</g>
</svg>
