<?xml version="1.0" encoding="utf-8"?>
<!-- Generator: Adobe Illustrator 18.1.1, SVG Export Plug-In . SVG Version: 6.00 Build 0)  -->
<svg version="1.1" id="icon-atom" xmlns="http://www.w3.org/2000/svg" xmlns:xlink="http://www.w3.org/1999/xlink" x="0px" y="0px"
	 width="36px" height="36px" viewBox="0 0 36 36" enable-background="new 0 0 36 36" xml:space="preserve">
<g id="atom-shape">
	<path fill="#EA2128" d="M33.588,9c-0.865-1.495-2.805-2.22-5.38-2.22c-1.21,0-2.56,0.159-4.005,0.474
		C22.793,2.851,20.538,0,17.997,0c-2.54,0-4.795,2.851-6.205,7.255c-1.44-0.315-2.79-0.474-4-0.474c-1.29,0-2.415,0.18-3.33,0.549
		C3.548,7.701,2.842,8.25,2.413,9c-1.271,2.2,0.069,5.58,3.174,9c-3.105,3.42-4.445,6.8-3.174,9c0.865,1.5,2.804,2.22,5.38,2.22
		c1.21,0,2.56-0.16,4-0.475C13.203,33.15,15.458,36,17.997,36c2.54,0,4.795-2.85,6.205-7.255c1.444,0.315,2.795,0.475,4,0.475
		c2.58,0,4.52-0.725,5.385-2.22c1.269-2.201-0.071-5.58-3.18-9C33.517,14.58,34.857,11.2,33.588,9z M7.793,27.22
		c-1.87,0-3.2-0.445-3.65-1.22c-0.58-1.01,0.07-2.991,1.7-5.175c0.35-0.465,0.736-0.93,1.15-1.395c1.035,0.99,2.21,1.965,3.5,2.905
		c0.169,1.585,0.424,3.09,0.765,4.481C10.017,27.08,8.847,27.22,7.793,27.22z M10.297,19.675c-0.68-0.55-1.32-1.109-1.915-1.675
		c0.595-0.565,1.235-1.125,1.915-1.675c-0.019,0.555-0.035,1.11-0.035,1.675C10.262,18.566,10.278,19.125,10.297,19.675z
		 M10.493,13.665c-1.29,0.94-2.465,1.92-3.5,2.905c-0.415-0.465-0.801-0.931-1.15-1.395c-1.63-2.185-2.28-4.165-1.7-5.175
		c0.45-0.775,1.78-1.22,3.65-1.22c1.054,0,2.224,0.14,3.465,0.405C10.917,10.576,10.663,12.08,10.493,13.665z M23.298,12.17
		c-0.465-0.294-0.941-0.585-1.43-0.87c-0.49-0.28-0.976-0.545-1.464-0.799c0.814-0.315,1.619-0.59,2.404-0.82
		C22.993,10.46,23.163,11.285,23.298,12.17z M17.997,2c1.355,0,3.065,2.094,4.265,5.755c-1.375,0.405-2.804,0.931-4.265,1.575
		c-1.455-0.65-2.89-1.17-4.259-1.575C14.937,4.095,16.642,2,17.997,2z M13.192,9.675c0.785,0.235,1.591,0.51,2.405,0.825
		c-0.49,0.255-0.979,0.52-1.464,0.799c-0.49,0.285-0.965,0.576-1.435,0.87C12.838,11.285,13.002,10.46,13.192,9.675z M12.698,23.83
		c0.47,0.295,0.945,0.585,1.435,0.87c0.485,0.28,0.974,0.545,1.464,0.8c-0.814,0.315-1.62,0.59-2.405,0.825
		C13.002,25.545,12.838,24.715,12.698,23.83z M17.997,34c-1.355,0-3.06-2.095-4.259-5.755c1.369-0.405,2.8-0.924,4.259-1.575
		c1.46,0.65,2.89,1.17,4.265,1.575C21.062,31.905,19.352,34,17.997,34z M22.808,26.325c-0.785-0.235-1.59-0.51-2.404-0.825
		c0.489-0.255,0.974-0.52,1.464-0.8c0.489-0.285,0.965-0.575,1.43-0.87C23.163,24.715,22.993,25.541,22.808,26.325z M23.602,21.235
		c-0.87,0.6-1.785,1.18-2.734,1.73c-0.95,0.549-1.91,1.05-2.87,1.499c-0.955-0.45-1.915-0.95-2.865-1.499
		c-0.955-0.55-1.87-1.13-2.735-1.73c-0.085-1.03-0.135-2.105-0.135-3.235c0-1.13,0.05-2.205,0.135-3.235
		c0.87-0.6,1.78-1.18,2.735-1.73c0.95-0.549,1.91-1.05,2.865-1.5c0.96,0.45,1.92,0.951,2.87,1.5c0.949,0.55,1.864,1.13,2.734,1.73
		c0.085,1.03,0.13,2.105,0.13,3.235C23.732,19.13,23.687,20.205,23.602,21.235z M28.207,8.78c1.871,0,3.201,0.445,3.645,1.22
		c0.585,1.01-0.065,2.99-1.7,5.175c-0.346,0.465-0.73,0.93-1.145,1.395c-1.035-0.985-2.21-1.965-3.5-2.905
		c-0.17-1.585-0.43-3.09-0.765-4.48C25.982,8.92,27.153,8.78,28.207,8.78z M25.698,16.325c0.68,0.55,1.319,1.11,1.915,1.675
		c-0.596,0.565-1.235,1.125-1.915,1.675c0.024-0.55,0.034-1.109,0.034-1.675C25.732,17.435,25.722,16.875,25.698,16.325z
		 M31.857,26.001c-0.449,0.775-1.779,1.22-3.654,1.22c-1.05,0-2.221-0.14-3.46-0.405c0.335-1.391,0.595-2.895,0.765-4.481
		c1.29-0.939,2.464-1.915,3.5-2.905c0.415,0.465,0.799,0.931,1.145,1.395C31.788,23.01,32.437,24.991,31.857,26.001z"/>
	<polygon fill="#EA2128" points="7.794,6.781 7.794,6.781 7.794,6.781 	"/>
	<polygon fill="#EA2128" points="28.205,6.781 28.205,6.781 28.205,6.781 	"/>
	<circle fill="#EA2128" cx="17.999" cy="18" r="2.578"/>
</g>
</svg>
