<?xml version="1.0" encoding="utf-8"?>
<!-- Generator: Adobe Illustrator 18.1.1, SVG Export Plug-In . SVG Version: 6.00 Build 0)  -->
<svg version="1.1" id="icon-five-star" xmlns="http://www.w3.org/2000/svg" xmlns:xlink="http://www.w3.org/1999/xlink" x="0px"
	 y="0px" width="200px" height="200px" viewBox="-205 297 200 200" enable-background="new -205 297 200 200" xml:space="preserve">
<path id="Cool_Grey_10M" fill="#807F83" d="M-105.002,308.05c-49.157,0-89.009,39.857-89.009,89.022
	c0,49.153,39.852,89.004,89.009,89.004c49.155,0,89.008-39.851,89.008-89.004C-15.994,347.907-55.847,308.05-105.002,308.05z
	 M-8.759,400.035l3.755-3.028l-3.755-3.025l3.555-3.255l-3.935-2.783l3.346-3.469l-4.103-2.536l3.118-3.672l-4.251-2.263
	l2.884-3.865l-4.389-1.998l2.635-4.038l-4.502-1.715l2.373-4.192l-4.602-1.434l2.108-4.335l-4.681-1.139l1.83-4.458l-4.743-0.844
	l1.543-4.564l-4.784-0.545l1.254-4.654l-4.813-0.241l0.961-4.723l-4.816,0.062l0.664-4.775l-4.809,0.364l0.365-4.805l-4.771,0.663
	l0.059-4.821l-4.724,0.964l-0.241-4.814l-4.65,1.256l-0.545-4.788l-4.564,1.548l-0.844-4.745l-4.457,1.831l-1.141-4.683
	l-4.334,2.107l-1.43-4.602l-4.192,2.375l-1.719-4.502l-4.037,2.632l-1.995-4.385L-84,303.022l-2.267-4.252l-3.675,3.119
	l-2.529-4.101l-3.472,3.343l-2.783-3.934l-3.255,3.553l-3.021-3.75l-3.025,3.751l-3.256-3.553l-2.783,3.934l-3.472-3.343
	l-2.529,4.101l-3.673-3.119l-2.27,4.252l-3.861-2.881l-1.994,4.385l-4.038-2.632l-1.715,4.502l-4.196-2.375l-1.429,4.602
	l-4.334-2.107l-1.14,4.683l-4.458-1.831l-0.844,4.745l-4.564-1.548l-0.545,4.788l-4.651-1.256l-0.241,4.814l-4.723-0.964
	l0.062,4.821l-4.771-0.663l0.362,4.805l-4.805-0.364l0.664,4.775l-4.819-0.062l0.965,4.723l-4.816,0.241l1.261,4.654l-4.789,0.545
	l1.547,4.564l-4.747,0.844l1.833,4.458l-4.682,1.139l2.105,4.335l-4.603,1.434l2.374,4.192l-4.499,1.715l2.632,4.038l-4.385,1.998
	l2.88,3.865l-4.251,2.263l3.117,3.672l-4.099,2.536l3.341,3.469l-3.934,2.782l3.555,3.255l-3.751,3.025l3.751,3.028l-3.555,3.248
	l3.934,2.783l-3.341,3.469l4.099,2.532l-3.117,3.672l4.251,2.271l-2.88,3.865l4.385,1.994l-2.632,4.034l4.499,1.716l-2.374,4.196
	l4.603,1.433l-2.105,4.334l4.682,1.137l-1.833,4.457l4.747,0.845l-1.547,4.56l4.789,0.544l-1.261,4.651l4.816,0.242l-0.965,4.723
	l4.819-0.062l-0.664,4.775l4.805-0.361l-0.362,4.801l4.771-0.66l-0.062,4.819l4.723-0.964l0.241,4.812l4.651-1.257l0.545,4.788
	l4.564-1.547l0.844,4.745l4.458-1.83l1.14,4.685l4.334-2.109l1.429,4.602l4.196-2.374l1.715,4.503l4.038-2.636l1.994,4.389
	l3.861-2.88l2.271,4.251l3.672-3.118l2.529,4.099l3.472-3.341l2.783,3.934l3.256-3.555l3.025,3.75l3.021-3.751l3.255,3.555
	l2.783-3.934l3.472,3.341l2.529-4.099l3.675,3.118l2.267-4.251l3.864,2.88l1.995-4.389l4.037,2.636l1.719-4.503l4.192,2.374
	l1.43-4.602l4.334,2.109l1.141-4.685l4.457,1.83l0.844-4.745l4.564,1.547l0.545-4.788l4.65,1.257l0.241-4.812l4.724,0.964
	l-0.059-4.819l4.771,0.66l-0.365-4.801l4.809,0.361l-0.664-4.775l4.816,0.062l-0.961-4.723l4.813-0.242l-1.254-4.651l4.784-0.544
	l-1.543-4.56l4.743-0.845l-1.83-4.457l4.681-1.137l-2.108-4.334l4.602-1.433l-2.373-4.196l4.502-1.716l-2.635-4.034l4.389-1.994
	l-2.884-3.865l4.251-2.271l-3.118-3.672l4.103-2.532l-3.346-3.469l3.935-2.783L-8.759,400.035z M-105.002,490.735
	c-51.73,0-93.668-41.937-93.668-93.663c0-51.738,41.938-93.682,93.668-93.682c51.727,0,93.668,41.944,93.668,93.682
	C-11.334,448.799-53.275,490.735-105.002,490.735z"/>
<path id="Blue_2905M" fill="#8CD2F4" d="M-44.312,336.309c-15.533-15.535-36.985-25.142-60.687-25.142
	c-23.705,0-45.156,9.607-60.691,25.142c-1.528,1.528-2.996,3.116-4.405,4.755h130.188
	C-41.315,339.424-42.784,337.837-44.312,336.309z M-122.744,330.75c0,3.589-2.433,5.21-5.859,5.21c-1.885,0-3.061-0.264-4.663-0.993
	l0.831-2.311c1.46,0.649,2.473,0.872,3.69,0.872c1.744,0,2.777-0.973,2.777-2.737v-0.101c0-1.521-0.73-2.311-2.048-2.311
	c-0.892,0-1.541,0.345-2.25,0.994h-2.23l0.649-8.211h8.312v2.514h-6.305l-0.324,3.649h0.142c0.851-0.77,1.622-1.196,3.122-1.196
	c2.494,0,4.156,1.5,4.156,4.359C-122.744,330.488-122.744,330.75-122.744,330.75z M-115.446,331.237h-5.514v-2.636h5.514
	L-115.446,331.237L-115.446,331.237z M-109.131,335.961c-2.737,0-4.44-0.912-5.697-2.737l2.027-1.845
	c0.933,1.44,2.23,2.19,3.751,2.19c1.5,0,2.331-0.588,2.331-1.642c0-0.994-0.588-1.5-3.102-2.19
	c-3.447-0.912-4.561-2.169-4.561-4.541c0-2.575,1.906-4.237,5.007-4.237c2.413,0,3.913,0.75,5.089,2.332l-2.027,1.845
	c-0.872-1.156-1.845-1.784-3.142-1.784c-1.338,0-1.987,0.649-1.987,1.48c0,0.932,0.547,1.48,3.021,2.149
	c3.589,0.973,4.642,2.311,4.642,4.602C-103.78,334.501-105.888,335.961-109.131,335.961z M-95.698,335.211
	c-1.054,0.507-2.007,0.75-3.163,0.75c-1.905,0-2.879-0.851-2.879-2.696v-6.184h-1.865v-2.048h1.865v-3.386l2.98-0.669v4.055h2.737
	v2.048h-2.737v5.494c0,0.669,0.385,1.034,0.973,1.034c0.548,0,1.155-0.182,2.088-0.649L-95.698,335.211L-95.698,335.211z
	 M-84.822,335.859c-2.19,0.061-3.406-0.406-3.73-1.399h-0.101c-1.014,1.095-1.967,1.419-3.183,1.419
	c-1.581,0-2.899-1.014-2.899-2.858c0-2.19,1.926-3.528,6.082-3.69v-0.933c0-0.973-0.507-1.48-1.44-1.48
	c-0.872,0-1.825,0.284-3.183,1.014l-0.811-1.804c1.5-0.791,2.839-1.277,4.521-1.277c2.615,0,3.73,1.014,3.73,3.487v5.231
	c0,0.791,0.223,1.074,1.014,1.176V335.859z M-76.845,327.507c-1.804,0-2.717,0.345-3.71,1.379v6.873h-3.061v-10.786h3.061v2.554
	h0.081c1.379-2.169,2.311-2.737,3.629-2.737L-76.845,327.507L-76.845,327.507z M-91.957,332.656c0,0.912,0.567,1.44,1.459,1.44
	c0.69,0,1.277-0.264,1.845-0.851v-2.676C-91.127,330.71-91.957,331.521-91.957,332.656z M-190.628,402.814
	c1.428,21.386,10.683,40.627,24.938,54.882c15.534,15.533,36.986,25.138,60.691,25.138c23.702,0,45.153-9.606,60.687-25.138
	c14.256-14.255,23.512-33.497,24.939-54.882H-190.628z"/>
<path id="White" fill="#FFFFFF" d="M-52.869,383.869h2.596v8.607c0,2.568,1.354,3.753,4.007,3.753c1.609,0,2.935-0.339,4.402-1.044
	v-3.132c-1.298,0.649-2.145,0.903-2.906,0.903c-0.819,0-1.354-0.508-1.354-1.439v-7.647h3.809v-2.85h-3.809v-5.643l-4.148,0.931
	v4.712h-2.596L-52.869,383.869L-52.869,383.869z M-60.003,393.604c-1.439,0-2.991-0.649-4.091-1.919l-2.06,2.144
	c1.327,1.383,3.245,2.37,6.067,2.37c3.443,0,5.841-1.524,5.841-4.628c0-2.427-1.326-3.866-4.881-4.882
	c-2.23-0.649-2.822-1.185-2.822-2.032c0-0.761,0.592-1.411,1.749-1.411c1.269,0,2.229,0.48,3.386,1.665l2.059-2.173
	c-1.298-1.354-2.935-2.088-5.333-2.088c-3.189,0-5.503,1.693-5.503,4.515c0,2.314,1.298,3.838,4.741,4.826
	c2.455,0.734,2.991,1.213,2.991,2.145C-57.858,393.068-58.732,393.604-60.003,393.604z M-59.001,363.749
	c0,2.568,1.354,3.753,4.007,3.753c1.608,0,2.935-0.339,4.402-1.044v-3.132c-1.298,0.649-2.145,0.903-2.907,0.903
	c-0.818,0-1.354-0.508-1.354-1.439v-7.647h3.81v-2.85h-3.81v-5.643L-59,347.581v4.712h-2.596v2.85H-59L-59.001,363.749
	L-59.001,363.749z M-71.925,356.61c0.847-1.045,1.722-1.609,2.512-1.609c1.072,0,1.551,0.621,1.551,1.835v10.384h4.233v-11.372
	c0-2.511-1.129-3.838-3.217-3.838c-1.89,0-3.33,0.847-4.966,2.625h-0.113v-8.776l-4.26,0.677v20.684h4.26L-71.925,356.61
	L-71.925,356.61z M-68.309,375.685h-4.233v3.555h4.233V375.685z M-80.093,395.947h4.233v-21.362l-4.233,0.678V395.947z
	 M-126.742,451.462l-3.383-10.457l-3.383,10.457l-10.983-0.013l8.896,6.443l-3.411,10.443l8.583-6.249l0.298-0.218l8.881,6.467
	l-3.408-10.443l8.894-6.443L-126.742,451.462z M-87.963,367.446c1.862,0,2.991-0.593,4.148-2.398h0.141v1.637
	c0,2.54-1.213,3.443-3.245,3.443c-1.806,0-4.148-0.988-4.148-0.988v2.709c1.101,0.424,2.54,0.762,4.571,0.762
	c4.656,0,7.083-1.722,7.083-6.406v-13.997h-4.261v2.06h-0.141c-1.072-1.749-2.201-2.286-4.12-2.286
	c-2.709,0-4.628,2.624-4.628,7.421v0.621C-92.562,364.849-90.812,367.446-87.963,367.446z M-86.1,354.719
	c1.467,0,2.455,1.75,2.455,4.966c0,3.274-1.016,5.023-2.455,5.023c-1.269,0-2.285-1.326-2.285-5.023
	C-88.385,356.103-87.398,354.719-86.1,354.719z M-72.542,395.947h4.233v-15.012h-4.233V395.947z M-142.945,383.107h-0.113v-2.173
	h-4.262v20.318h4.262v-7.365h0.113c0.847,1.411,2.088,2.286,4.035,2.286c2.709,0,4.741-2.624,4.741-7.421v-0.649
	c0-4.797-1.777-7.393-4.628-7.393C-140.631,380.709-141.816,381.499-142.945,383.107z M-140.66,383.447
	c1.298,0,2.314,1.326,2.314,5.023c0,3.584-0.987,4.966-2.314,4.966c-1.439,0-2.427-1.749-2.427-4.966
	C-143.087,385.196-142.099,383.447-140.66,383.447z M-89.874,420.567l-10.989,0.014l-3.38-10.457l-3.383,10.458l-10.984-0.015
	l8.893,6.444l-3.408,10.442l8.584-6.25l0.298-0.218l8.881,6.47l-3.409-10.443L-89.874,420.567z M-134.328,359.685l4.769,7.535h4.6
	l-5.136-7.647l4.853-7.365h-4.487l-4.599,7.393v-13.743l-4.261,0.677v20.684h4.261V359.685z M-119.625,388.158
	c0-4.684-2.286-7.506-6.152-7.506c-3.753,0-6.236,2.878-6.236,7.478v0.564c0,4.769,2.483,7.478,6.631,7.478
	c2.371,0,3.894-0.508,5.87-1.637l-1.044-2.596c-1.552,0.931-2.85,1.354-4.176,1.354c-1.919,0-3.189-1.016-3.33-3.866h8.437
	L-119.625,388.158L-119.625,388.158z M-128.062,387.623c0.056-3.217,0.818-4.515,2.286-4.515c1.439,0,2.088,1.156,2.201,4.515
	H-128.062z M-76.038,451.462l-3.381-10.457l-3.383,10.457l-10.986-0.013l8.896,6.443l-3.408,10.444l8.583-6.25l0.298-0.218
	l8.88,6.467l-3.407-10.443l8.895-6.443L-76.038,451.462z M-50.158,420.58l-3.378-10.455l-3.382,10.457l-10.986-0.014l8.896,6.443
	l-3.412,10.441l8.586-6.25l0.298-0.218l8.881,6.47l-3.411-10.443l8.898-6.445L-50.158,420.58z M-148.455,364.172
	c-2.117,0-3.923-1.044-5.221-3.047l-2.822,2.568c1.749,2.54,4.12,3.809,7.93,3.809c4.515,0,7.45-2.032,7.45-6.095
	c0-3.189-1.467-5.051-6.463-6.406c-3.443-0.931-4.204-1.693-4.204-2.991c0-1.157,0.903-2.06,2.765-2.06
	c1.806,0,3.16,0.875,4.373,2.483l2.822-2.568c-1.637-2.201-3.725-3.245-7.082-3.245c-4.318,0-6.97,2.314-6.97,5.897
	c0,3.302,1.552,5.051,6.35,6.321c3.499,0.959,4.317,1.665,4.317,3.048C-145.21,363.353-146.367,364.172-148.455,364.172z
	 M-157.185,392.9c-2.117,0-3.923-1.044-5.221-3.047l-2.822,2.568c1.749,2.54,4.12,3.809,7.93,3.809c4.515,0,7.45-2.032,7.45-6.095
	c0-3.189-1.467-5.051-6.463-6.405c-3.443-0.932-4.204-1.693-4.204-2.992c0-1.157,0.903-2.06,2.766-2.06
	c1.806,0,3.16,0.875,4.373,2.483l2.822-2.568c-1.637-2.201-3.725-3.245-7.082-3.245c-4.318,0-6.97,2.314-6.97,5.897
	c0,3.301,1.552,5.051,6.35,6.321c3.499,0.959,4.317,1.665,4.317,3.047C-153.94,392.081-155.097,392.9-157.185,392.9z
	 M-139.962,420.567l-10.987,0.014l-3.379-10.459l-3.382,10.459l-10.987-0.014l8.896,6.444l-3.409,10.44l8.583-6.25l0.299-0.217
	l8.877,6.469l-3.408-10.442L-139.962,420.567z M-118.52,368.857c-0.339,0.932-1.1,1.214-2.059,1.214s-2.681-0.79-2.681-0.79v2.709
	c0.988,0.479,2.004,0.649,3.358,0.649c2.85,0,4.317-0.931,5.305-4.035l5.249-16.395h-4.007l-2.991,11.231l-2.964-11.232h-4.373
	l5.361,16.113L-118.52,368.857z M-98.455,375.685h-4.233v3.555h4.233V375.685z M-95.375,346.96h-4.233v3.555h4.233V346.96z
	 M-89.617,383.644c1.298,0,2.003,0.706,2.003,2.06v1.298c-5.784,0.226-8.465,2.088-8.465,5.136c0,2.568,1.835,3.979,4.036,3.979
	c1.693,0,3.019-0.451,4.43-1.975h0.142c0.451,1.383,2.144,2.032,5.192,1.947v-1.552c-1.101-0.141-1.411-0.536-1.411-1.637v-7.281
	c0-3.443-1.552-4.853-5.192-4.853c-2.343,0-4.205,0.677-6.293,1.778l1.129,2.511C-92.157,384.038-90.831,383.644-89.617,383.644z
	 M-87.614,392.447c-0.79,0.818-1.608,1.185-2.567,1.185c-1.242,0-2.032-0.734-2.032-2.003c0-1.58,1.156-2.709,4.599-2.907V392.447z
	 M-95.375,352.207h-4.233v15.012h4.233V352.207z M-98.455,380.934h-4.233v15.012h4.233V380.934z M-110.995,383.417
	c1.242,0,1.75,0.875,2.089,2.794l3.782-0.762c-0.621-3.188-2.54-4.797-5.815-4.797c-4.063,0-6.575,2.878-6.575,7.478v0.621
	c0,4.628,2.483,7.478,6.434,7.478c3.218,0,5.25-1.496,6.012-4.684l-3.698-0.762c-0.452,1.975-1.101,2.681-2.173,2.681
	c-1.552,0-2.342-1.496-2.342-4.882V388.3C-113.281,384.884-112.519,383.417-110.995,383.417z M-102.926,345.858l-4.234,0.677v20.684
	h4.234V345.858z M-105,303.327c-51.73,0-93.668,41.944-93.668,93.682c0,51.726,41.938,93.663,93.668,93.663
	c51.727,0,93.668-41.937,93.668-93.663C-11.332,345.271-53.273,303.327-105,303.327z M-105,486.012
	c-49.157,0-89.009-39.851-89.009-89.004c0-49.164,39.852-89.022,89.009-89.022c49.155,0,89.008,39.857,89.008,89.022
	C-15.992,446.161-55.845,486.012-105,486.012z"/>
</svg>
