<?xml version="1.0" encoding="utf-8"?>
<!-- Generator: Adobe Illustrator 18.1.1, SVG Export Plug-In . SVG Version: 6.00 Build 0)  -->
<svg version="1.1" id="icon-twitter" xmlns="http://www.w3.org/2000/svg" xmlns:xlink="http://www.w3.org/1999/xlink" x="0px"
	 y="0px" width="24px" height="24px" viewBox="0 0 24 24" enable-background="new 0 0 24 24" xml:space="preserve">
<path fill="#5F6C71" d="M24,4.558c-0.882,0.391-1.833,0.656-2.827,0.775c1.017-0.61,1.797-1.574,2.165-2.724
	c-0.951,0.564-2.006,0.974-3.128,1.194c-0.897-0.956-2.176-1.554-3.593-1.554c-2.718,0-4.923,2.205-4.923,4.923
	c0,0.387,0.042,0.762,0.127,1.122C7.728,8.087,4.1,6.128,1.671,3.148C1.248,3.877,1.004,4.723,1.004,5.625
	c0,1.707,0.87,3.215,2.19,4.098C2.388,9.698,1.628,9.476,0.964,9.108c0,0.02,0,0.042,0,0.061c0,2.387,1.698,4.376,3.95,4.828
	c-0.413,0.115-0.848,0.173-1.297,0.173c-0.317,0-0.626-0.029-0.927-0.088c0.626,1.956,2.444,3.381,4.6,3.419
	c-1.686,1.321-3.809,2.107-6.116,2.107c-0.398,0-0.79-0.022-1.175-0.068c2.179,1.396,4.767,2.211,7.548,2.211
	c9.057,0,14.008-7.502,14.008-14.008c0-0.215-0.004-0.428-0.013-0.637C22.507,6.411,23.341,5.544,24,4.558z"/>
</svg>
