<?xml version="1.0" encoding="utf-8"?>
<!-- Generator: Adobe Illustrator 18.1.1, SVG Export Plug-In . SVG Version: 6.00 Build 0)  -->
<svg version="1.1" id="icon-phone" xmlns="http://www.w3.org/2000/svg" xmlns:xlink="http://www.w3.org/1999/xlink" x="0px" y="0px"
	 width="20px" height="20px" viewBox="0 0 20 20" enable-background="new 0 0 20 20" xml:space="preserve">
<path id="phone-shape" fill="#EA2128" d="M19.8,16.046l-4.395-2.59c-0.228-0.115-0.562-0.062-0.746,0.119l-1.293,1.293
	c-0.181,0.181-0.539,0.332-0.793,0.335c0,0-1.654,0.018-4.726-3.054c-3.072-3.072-3.057-4.73-3.057-4.73
	c0.003-0.258,0.154-0.616,0.334-0.796l1.101-1.101c0.184-0.184,0.243-0.521,0.136-0.755L3.937,0.209
	C3.83-0.024,3.594-0.066,3.413,0.115L0.406,3.113c-0.18,0.181-0.358,0.536-0.391,0.79c0,0-0.589,4.383,5.552,10.524
	c6.141,6.141,10.524,5.555,10.524,5.555c0.255-0.035,0.61-0.21,0.79-0.391l3.004-3.004C20.067,16.407,20.028,16.162,19.8,16.046"/>
</svg>
