<?xml version="1.0" encoding="utf-8"?>
<!-- Generator: Adobe Illustrator 18.1.1, SVG Export Plug-In . SVG Version: 6.00 Build 0)  -->
<svg version="1.1" id="icon-people" xmlns="http://www.w3.org/2000/svg" xmlns:xlink="http://www.w3.org/1999/xlink" x="0px"
	 y="0px" width="36px" height="36px" viewBox="0 0 36 36" enable-background="new 0 0 36 36" xml:space="preserve">
<g id="people-shape">
	<path fill="#EA2128" d="M36,25.194c0,0-0.009-0.88-1.811-1.681c-0.873-0.388-2.169-1.388-4.088-1.731
		c0.49-0.525,0.862-1.347,1.244-2.32c0.221-0.564,0.184-1.044,0.184-1.728c0-0.506,0.095-1.318-0.03-1.764
		c-0.423-1.506-1.493-1.922-2.746-1.922c-1.253,0-2.324,0.418-2.747,1.927c-0.124,0.445-0.029,1.254-0.029,1.758
		c0,0.685-0.038,1.168,0.185,1.733c0.315,0.8,0.618,1.492,0.985,2.005c2.126,1.281,2.324,2.701,2.329,3.151v0.007v0.007v2.044v0.002
		L36,26.681V25.194z"/>
	<path fill="#EA2128" d="M6.507,24.629V24.62c0.005-0.446,0.202-1.846,2.283-3.12c0.381-0.517,0.695-1.223,1.014-2.038
		c0.221-0.564,0.184-1.044,0.184-1.728c0-0.506,0.095-1.318-0.03-1.764c-0.423-1.506-1.493-1.922-2.746-1.922
		c-1.254,0-2.324,0.418-2.747,1.927c-0.124,0.445-0.029,1.254-0.029,1.758c0,0.685-0.037,1.168,0.185,1.733
		c0.385,0.978,0.751,1.798,1.24,2.321c-1.904,0.35-3.19,1.343-4.058,1.73C0.008,24.317,0,25.194,0,25.194v1.489l6.507-0.001v-2.046
		V24.629z"/>
	<path fill="#EA2128" d="M25.44,22.327c-1.2-0.533-2.981-1.908-5.618-2.38c0.674-0.722,1.185-1.85,1.71-3.188
		c0.304-0.776,0.252-1.436,0.252-2.377c0-0.696,0.13-1.81-0.042-2.423c-0.582-2.071-2.051-2.642-3.774-2.642
		c-1.723,0-3.195,0.574-3.775,2.648c-0.172,0.611-0.04,1.724-0.04,2.417c0,0.943-0.051,1.606,0.254,2.382
		c0.529,1.344,1.032,2.471,1.704,3.19c-2.616,0.481-4.384,1.845-5.576,2.377c-2.467,1.101-2.48,2.305-2.48,2.305v2.047l19.874-0.003
		v-2.044C27.929,24.636,27.917,23.428,25.44,22.327z"/>
</g>
</svg>
