<?xml version="1.0" encoding="utf-8"?>
<!-- Generator: Adobe Illustrator 18.1.1, SVG Export Plug-In . SVG Version: 6.00 Build 0)  -->
<svg version="1.1" id="icon-mountains" xmlns="http://www.w3.org/2000/svg" xmlns:xlink="http://www.w3.org/1999/xlink" x="0px"
	 y="0px" width="36px" height="36px" viewBox="0 0 36 36" enable-background="new 0 0 36 36" xml:space="preserve">
<g id="mountains-shape">
	<path fill="#EA2128" d="M21.996,6.818l-6.957,10.639l0.542,1.087h-1.254l-0.079,0.121l1.335,2.093l1.747,2.739h-2.087l1.626,2.095
		l2.051,2.641H36L21.996,6.818z M21.996,16.04l-2.677,1.23l-1.158-1.576l3.835-5.865l3.096,4.734l-2.051,5.673L21.996,16.04z"/>
	<polygon fill="#EA2128" points="10.225,26.687 15.463,26.687 11.604,21.717 14.082,21.717 10.923,16.764 12.702,16.764 
		7.739,6.818 2.761,16.764 4.548,16.764 1.381,21.717 3.867,21.717 0,26.687 5.228,26.687 5.228,29.182 10.225,29.182 	"/>
</g>
</svg>
