<?xml version="1.0" encoding="utf-8"?>
<!-- Generator: Adobe Illustrator 18.0.0, SVG Export Plug-In . SVG Version: 6.00 Build 0)  -->
<!DOCTYPE svg PUBLIC "-//W3C//DTD SVG 1.1//EN" "http://www.w3.org/Graphics/SVG/1.1/DTD/svg11.dtd">
<svg version="1.1" id="Layer_1" xmlns="http://www.w3.org/2000/svg" xmlns:xlink="http://www.w3.org/1999/xlink" x="0px" y="0px"
	 width="44px" height="44px" viewBox="0 0 44 44" enable-background="new 0 0 44 44" xml:space="preserve">
<g id="icon-twitter">
	<path fill="#010101" d="M22,0C9.8,0,0,9.8,0,22s9.8,22,22,22s22-9.8,22-22S34.2,0,22,0z M30.8,17.4c0,0.2,0,0.3,0,0.5
		c0,5.9-4.6,12.9-12.9,12.9c-2.5,0-4.9-0.7-6.9-2c0.3,0,0.7,0,1,0c2.2,0,4.1-0.7,5.6-1.9c-2,0-3.7-1.4-4.2-3.2c0.3,0,0.5,0,0.8,0
		s0.8,0,1.2-0.2c-2-0.3-3.6-2.2-3.6-4.4l0,0c0.7,0.3,1.4,0.5,2,0.5c-1.2-0.5-2-1.9-2-3.6c0-0.8,0.2-1.5,0.7-2.2
		c2.2,2.7,5.6,4.6,9.3,4.7c0-0.3-0.2-0.7-0.2-1c0-2.5,2-4.6,4.6-4.6c1.4,0,2.5,0.5,3.2,1.4c1-0.2,2-0.5,2.9-1c-0.3,1-1,2-1.9,2.5
		c0.8-0.2,1.7-0.3,2.5-0.7C32.3,16.1,31.6,16.9,30.8,17.4z"/>
</g>
</svg>
