<?xml version="1.0" encoding="utf-8"?>
<!-- Generator: Adobe Illustrator 18.1.0, SVG Export Plug-In . SVG Version: 6.00 Build 0)  -->
<!DOCTYPE svg PUBLIC "-//W3C//DTD SVG 1.1//EN" "http://www.w3.org/Graphics/SVG/1.1/DTD/svg11.dtd">
<svg version="1.1" id="icon-compass" xmlns="http://www.w3.org/2000/svg" xmlns:xlink="http://www.w3.org/1999/xlink" x="0px"
	 y="0px" width="98px" height="98px" viewBox="0 0 98 98" enable-background="new 0 0 98 98" xml:space="preserve">
<path fill="#22B29A" d="M49,97.5C26.7,97.5,8.5,79.3,8.5,57c0-22.3,18.2-40.5,40.5-40.5c22.3,0,40.5,18.2,40.5,40.5
	C89.5,79.3,71.3,97.5,49,97.5z M13.5,57c0,19.6,15.9,35.5,35.5,35.5c19.6,0,35.5-15.9,35.5-35.5c0-19.6-15.9-35.5-35.5-35.5
	C29.4,21.5,13.5,37.4,13.5,57z"/>
<path id="pointer" fill="#22B29A" d="M59.5,11.5L49,9.5l-10.5,2L49,0.5L59.5,11.5z"/>
</svg>
