<?xml version="1.0" encoding="utf-8"?>
<!-- Generator: Adobe Illustrator 18.0.0, SVG Export Plug-In . SVG Version: 6.00 Build 0)  -->
<!DOCTYPE svg PUBLIC "-//W3C//DTD SVG 1.1//EN" "http://www.w3.org/Graphics/SVG/1.1/DTD/svg11.dtd">
<svg version="1.1" id="Layer_1" xmlns="http://www.w3.org/2000/svg" xmlns:xlink="http://www.w3.org/1999/xlink" x="0px" y="0px"
	 width="44px" height="44px" viewBox="0 0 44 44" enable-background="new 0 0 44 44" xml:space="preserve">
<g id="icon-facebook">
	<path fill="#010101" d="M22,0C9.8,0,0,9.8,0,22s9.8,22,22,22s22-9.8,22-22S34.2,0,22,0z M26.7,22h-3c0,4.9,0,11,0,11h-4.6
		c0,0,0-5.9,0-11h-2.2v-3.9h2.2v-2.5c0-1.9,0.8-4.6,4.6-4.6h3.4v3.7c0,0-2,0-2.5,0c-0.3,0-1,0.2-1,1v2.2h3.6L26.7,22z"/>
</g>
</svg>
