<?xml version="1.0" encoding="utf-8"?>
<!-- Generator: Adobe Illustrator 18.0.0, SVG Export Plug-In . SVG Version: 6.00 Build 0)  -->
<!DOCTYPE svg PUBLIC "-//W3C//DTD SVG 1.1//EN" "http://www.w3.org/Graphics/SVG/1.1/DTD/svg11.dtd">
<svg version="1.1" id="Layer_1" xmlns="http://www.w3.org/2000/svg" xmlns:xlink="http://www.w3.org/1999/xlink" x="0px" y="0px"
	 width="44px" height="44px" viewBox="0 0 44 44" enable-background="new 0 0 44 44" xml:space="preserve">
<g id="icon-linkedin">
	<path fill="#010101" d="M22,0C9.8,0,0,9.8,0,22s9.8,22,22,22s22-9.8,22-22S34.2,0,22,0z M16.1,32.5h-4.7V18.3h4.7V32.5z M13.7,16.4
		L13.7,16.4c-1.7,0-2.7-1-2.7-2.4s1-2.4,2.7-2.4s2.5,1,2.7,2.4C16.2,15.2,15.2,16.4,13.7,16.4z M33,32.5h-4.7v-7.6
		c0-1.9-0.7-3.2-2.4-3.2c-1.4,0-2,0.8-2.4,1.7c-0.2,0.3-0.2,0.7-0.2,1.2v8h-4.7c0,0,0-12.9,0-14.2h4.7v2c0.7-1,1.7-2.4,4.2-2.4
		c3,0,5.4,2,5.4,6.4C33,24.4,33,32.5,33,32.5z"/>
</g>
</svg>
